<svg width="20" height="20" viewBox="0 0 20 20" fill="none" xmlns="http://www.w3.org/2000/svg">
  <g clip-path="url(#clip0_405_6428)">
    <path d="M6.54554 19.1818C7.44928 19.1818 8.18191 18.4492 8.18191 17.5455C8.18191 16.6417 7.44928 15.9091 6.54554 15.9091C5.6418 15.9091 4.90918 16.6417 4.90918 17.5455C4.90918 18.4492 5.6418 19.1818 6.54554 19.1818Z" stroke="#323941" stroke-width="1.27585" stroke-linecap="round" stroke-linejoin="round" />
    <path d="M16.3639 19.1818C17.2676 19.1818 18.0003 18.4492 18.0003 17.5455C18.0003 16.6417 17.2676 15.9091 16.3639 15.9091C15.4602 15.9091 14.7275 16.6417 14.7275 17.5455C14.7275 18.4492 15.4602 19.1818 16.3639 19.1818Z" stroke="#323941" stroke-width="1.27585" stroke-linecap="round" stroke-linejoin="round" />
    <path d="M4.63927 5.27273H18.8184L17.4438 12.1373C17.369 12.514 17.1641 12.8523 16.8649 13.0932C16.5658 13.334 16.1914 13.4619 15.8075 13.4546H7.15927C6.75974 13.4579 6.37277 13.315 6.07134 13.0528C5.7699 12.7905 5.57483 12.4271 5.52291 12.0309L4.27927 2.60546C4.2277 2.21211 4.03498 1.85089 3.73698 1.58901C3.43898 1.32713 3.05599 1.18242 2.65927 1.18182H0.818359" stroke="#323941" stroke-width="1.27585" stroke-linecap="round" stroke-linejoin="round" />
  </g>
  <defs>
    <clipPath id="clip0_405_6428">
      <rect width="19.6364" height="19.6364" fill="white" transform="translate(0 0.363647)" />
    </clipPath>
  </defs>
</svg>
