<svg width="41" height="26" viewBox="0 0 41 26" fill="none" xmlns="http://www.w3.org/2000/svg">
<g clip-path="url(#clip0_405_6500)">
<path d="M36.5227 6.10352e-05H4.0851C3.94998 6.10352e-05 3.81462 6.10352e-05 3.67974 0.000777229C3.56586 0.00173216 3.45223 0.00292581 3.33835 0.00602932C3.09031 0.0127138 2.84012 0.0275152 2.59518 0.0714417C2.34954 0.113528 2.11154 0.191976 1.88901 0.304205C1.44167 0.531735 1.07806 0.895343 0.850531 1.34269C0.738102 1.56529 0.659644 1.80348 0.617767 2.04933C0.573363 2.29451 0.558801 2.54446 0.552116 2.79226C0.549207 2.90604 0.547456 3.01984 0.546864 3.13365C0.546387 3.26829 0.546387 3.40342 0.546387 3.53878V21.7583C0.546387 21.8936 0.546387 22.0285 0.546864 22.1639C0.54758 22.2775 0.549013 22.3914 0.552116 22.5053C0.558801 22.7526 0.573602 23.0028 0.617767 23.2477C0.659558 23.4936 0.737936 23.7318 0.850292 23.9544C0.963256 24.1767 1.11071 24.3798 1.28717 24.556C1.46333 24.7325 1.66639 24.88 1.88877 24.9929C2.11485 25.1082 2.34642 25.1815 2.59542 25.2261C2.84012 25.2698 3.09031 25.2846 3.33835 25.2913C3.45223 25.2939 3.56586 25.2953 3.67974 25.296C3.81462 25.297 3.94998 25.297 4.0851 25.297H36.5227C36.6576 25.297 36.793 25.297 36.9279 25.296C37.0415 25.2956 37.1551 25.2939 37.2695 25.2913C37.5171 25.2846 37.7672 25.2698 38.0127 25.2261C38.2584 25.184 38.4964 25.1054 38.7188 24.9929C39.166 24.765 39.5295 24.4015 39.7573 23.9544C39.8726 23.7283 39.9457 23.4967 39.9898 23.2477C40.0342 23.0028 40.0486 22.7526 40.0552 22.5053C40.0584 22.3914 40.06 22.2775 40.0605 22.1639C40.0615 22.0285 40.0615 21.8936 40.0615 21.7583V3.53902C40.0615 3.40366 40.0615 3.26853 40.0605 3.13341C40.06 3.01968 40.0583 2.90596 40.0552 2.79226C40.0486 2.54446 40.0342 2.29451 39.9898 2.04933C39.9483 1.80344 39.8699 1.56522 39.7573 1.34269C39.5297 0.895422 39.1661 0.531843 38.7188 0.304205C38.4963 0.192092 38.2583 0.113725 38.0127 0.0716805C37.7672 0.0275152 37.5171 0.0129525 37.2695 0.00626805C37.1556 0.00337637 37.0418 0.00162558 36.9279 0.00101596C36.793 6.10352e-05 36.6576 6.10352e-05 36.5227 6.10352e-05Z" fill="black"/>
<path d="M36.5238 0.843201L36.9229 0.843917C37.0308 0.844633 37.139 0.845827 37.2476 0.848692C37.4369 0.853944 37.658 0.864209 37.8643 0.901212C38.0433 0.933441 38.1937 0.982381 38.3379 1.05591C38.6265 1.20262 38.8609 1.43731 39.0073 1.72603C39.0804 1.86927 39.1291 2.01871 39.1613 2.19943C39.1981 2.40331 39.2083 2.62509 39.2133 2.81536C39.2164 2.92279 39.2179 3.03022 39.2181 3.14004C39.2193 3.27301 39.2193 3.40574 39.2193 3.53896V21.7585C39.2193 21.8917 39.2193 22.0244 39.2183 22.16C39.2179 22.2674 39.2164 22.3749 39.2136 22.4823C39.2083 22.6723 39.1981 22.8941 39.1608 23.1004C39.1337 23.2644 39.0818 23.4234 39.0068 23.5719C38.8601 23.8607 38.6253 24.0954 38.3365 24.242C38.1932 24.315 38.0433 24.364 37.8659 24.396C37.6556 24.4334 37.425 24.4437 37.2514 24.4485C37.1423 24.4509 37.0337 24.4525 36.9222 24.453C36.7897 24.454 36.6565 24.454 36.5238 24.454H4.08089C3.94959 24.454 3.81828 24.454 3.6846 24.453C3.57716 24.4526 3.46972 24.4511 3.36231 24.4487C3.18469 24.444 2.95408 24.4334 2.74543 24.3962C2.58046 24.3687 2.4206 24.3164 2.27131 24.241C2.12809 24.1683 1.99738 24.0732 1.88408 23.9593C1.77042 23.8459 1.6755 23.7151 1.60286 23.5719C1.52784 23.4226 1.47584 23.2628 1.44864 23.098C1.41139 22.892 1.40089 22.6711 1.39612 22.4825C1.39342 22.3747 1.39183 22.2669 1.39134 22.1591L1.39062 21.8423V3.4554L1.3911 3.13908C1.3916 3.03108 1.39319 2.92309 1.39588 2.81512C1.40113 2.62605 1.41139 2.40522 1.44888 2.19752C1.47613 2.033 1.52813 1.87356 1.6031 1.7246C1.67567 1.58184 1.77021 1.45149 1.8848 1.33714C1.99837 1.22338 2.12922 1.12831 2.2725 1.05543C2.42143 0.980609 2.58078 0.92862 2.74519 0.901212C2.95169 0.864209 3.17299 0.853944 3.36255 0.848692C3.47045 0.845827 3.5786 0.844633 3.68579 0.843917L4.08614 0.843201H36.5238Z" fill="white"/>
<path d="M10.9328 8.5395C11.2679 8.12053 11.4952 7.55784 11.4353 6.98297C10.9449 7.00732 10.3467 7.30645 10 7.7259C9.68897 8.08496 9.41372 8.67104 9.48534 9.22179C10.0359 9.26954 10.5859 8.94678 10.9328 8.5395Z" fill="black"/>
<path d="M11.4296 9.3295C10.6299 9.28175 9.95047 9.78309 9.56874 9.78309C9.18677 9.78309 8.60211 9.35337 7.96971 9.36507C7.14681 9.37701 6.38334 9.84253 5.96556 10.5826C5.10661 12.0627 5.73877 14.2591 6.57433 15.4647C6.97993 16.0615 7.46886 16.718 8.11295 16.6944C8.72172 16.6705 8.96021 16.3005 9.6998 16.3005C10.4392 16.3005 10.654 16.6944 11.2983 16.6824C11.9663 16.6705 12.3841 16.0856 12.7897 15.4888C13.2552 14.8084 13.4455 14.1519 13.4574 14.1161C13.4455 14.1041 12.1692 13.6145 12.1573 12.1463C12.1454 10.9168 13.1595 10.3319 13.2072 10.2959C12.6345 9.44887 11.7398 9.35337 11.4294 9.3295" fill="black"/>
<path d="M19.4003 7.66577C21.1377 7.66577 22.3479 8.86349 22.3479 10.6072C22.3479 12.3571 21.1129 13.561 19.3568 13.561H17.4331V16.6206H16.0432V7.66577H19.4003ZM17.4331 12.3943H19.0278C20.2382 12.3943 20.9267 11.7428 20.9267 10.6134C20.9267 9.48419 20.238 8.83866 19.034 8.83866H17.4331V12.3943Z" fill="black"/>
<path d="M22.6919 14.7649C22.6919 13.6169 23.5668 12.9592 25.1802 12.8599L26.9115 12.7544V12.2578C26.9115 11.532 26.4338 11.1348 25.5836 11.1348C24.8823 11.1348 24.3733 11.4946 24.2682 12.0468H23.0144C23.0519 10.8865 24.1439 10.0426 25.6209 10.0426C27.2094 10.0426 28.2457 10.8741 28.2457 12.1649V16.6204H26.9614V15.5468H26.9303C26.5641 16.2479 25.7572 16.6884 24.8823 16.6884C23.5917 16.6884 22.6919 15.9192 22.6919 14.7649ZM26.9115 14.1879V13.6852L25.3664 13.7845C24.4974 13.8403 24.0448 14.1629 24.0448 14.7275C24.0448 15.2737 24.5163 15.6275 25.2547 15.6275C26.1977 15.6275 26.9115 15.0254 26.9115 14.1879Z" fill="black"/>
<path d="M29.4268 19.0155V17.9422C29.5137 17.9543 29.7245 17.9668 29.8362 17.9668C30.4505 17.9668 30.7981 17.7065 31.0091 17.0359L31.1332 16.6389L28.7812 10.1232H30.2332L31.8716 15.4102H31.9027L33.5408 10.1232H34.9558L32.5169 16.9677C31.9583 18.5378 31.3192 19.053 29.9666 19.053C29.861 19.053 29.5196 19.0406 29.4268 19.0155Z" fill="black"/>
</g>
<defs>
<clipPath id="clip0_405_6500">
<rect width="40.0539" height="25.2972" fill="white" transform="translate(0.277832 6.10352e-05)"/>
</clipPath>
</defs>
</svg>
