<svg width="41" height="26" viewBox="0 0 41 26" fill="none" xmlns="http://www.w3.org/2000/svg">
<g clip-path="url(#clip0_405_6511)">
<path opacity="0.07" d="M37.4474 6.10352e-05H3.71781C1.92593 6.10352e-05 0.555664 1.37032 0.555664 3.16221V22.1351C0.555664 23.927 2.03133 25.2972 3.71781 25.2972H37.4474C39.2393 25.2972 40.6095 23.927 40.6095 22.1351V3.16221C40.6095 1.37032 39.1339 6.10352e-05 37.4474 6.10352e-05Z" fill="black"/>
<path d="M37.4475 1.05408C38.607 1.05408 39.5556 2.00272 39.5556 3.16218V22.1351C39.5556 23.2945 38.607 24.2432 37.4475 24.2432H3.71796C2.55851 24.2432 1.60986 23.2945 1.60986 22.1351V3.16218C1.60986 2.00272 2.55851 1.05408 3.71796 1.05408H37.4475Z" fill="white"/>
<path d="M23.3234 4.63784C18.8964 3.16217 14.1532 5.48107 12.5721 9.90808C10.9911 14.3351 13.4154 19.0783 17.8424 20.6594C22.2694 22.2405 27.0126 19.8161 28.5937 15.3891C30.0694 10.9621 27.7505 6.21891 23.3234 4.63784Z" fill="#EDA024"/>
<path d="M17.5264 8.74867L17.8426 7.69462C18.475 7.90543 19.2128 8.11624 19.8453 8.43245C20.0561 7.90543 20.2669 7.3784 20.3723 6.74597L21.3209 7.06219L20.7939 8.64326L21.6372 8.95947L22.1642 7.3784L23.1128 7.69462C22.902 8.22164 22.6912 8.74866 22.5858 9.38109L23.0074 9.5919C23.3236 9.80271 23.6398 10.0135 23.9561 10.3297C24.2723 10.646 24.3777 10.9622 24.4831 11.3838C24.4831 11.7 24.4831 12.0162 24.2723 12.3324C24.0615 12.8595 23.7453 13.1757 23.1128 13.2811H22.902C23.1128 13.3865 23.2182 13.4919 23.3236 13.7027C23.7453 14.1243 23.8507 14.5459 23.7453 15.1784C23.7453 15.2838 23.7453 15.3892 23.6398 15.4946C23.6398 15.6 23.6398 15.6 23.5344 15.7054C23.429 15.9162 23.3236 16.0216 23.3236 16.2324C23.0074 16.7594 22.4804 17.1811 21.7426 17.1811C21.2155 17.1811 20.6885 17.1811 20.2669 17.0757L19.8453 16.9702C19.6345 17.4973 19.4237 18.0243 19.3182 18.6567L18.3696 18.3405C18.5804 17.8135 18.7912 17.2865 18.8966 16.7594L18.0534 16.4432C17.8426 16.9702 17.6318 17.4973 17.5264 18.0243L16.5777 17.7081C16.7885 17.1811 16.9993 16.654 17.1047 16.0216L15.1021 15.3892L15.7345 14.2297C15.9453 14.3351 16.2615 14.4405 16.4723 14.4405C16.6831 14.5459 16.8939 14.4405 16.9993 14.2297L18.475 9.80271V9.69731C18.475 9.38109 18.3696 9.17028 18.0534 9.17028C18.0534 8.95947 17.8426 8.85407 17.5264 8.74867ZM18.7912 15.073C19.3182 15.2838 19.7399 15.3892 20.1615 15.4946C20.4777 15.6 20.6885 15.6 21.0047 15.6C21.2155 15.6 21.3209 15.6 21.5317 15.4946C22.0588 15.1784 22.1642 14.4405 21.7426 14.0189L21.1101 13.4919C20.7939 13.2811 20.3723 13.1757 19.9507 13.0703C19.8453 13.0703 19.6345 12.9649 19.5291 12.8595L18.7912 15.073ZM19.8453 11.8054C20.1615 11.9108 20.3723 12.0162 20.5831 12.0162C20.8993 12.1216 21.2155 12.227 21.5317 12.1216C21.9534 12.1216 22.2696 12.0162 22.375 11.5946C22.4804 11.2784 22.4804 10.9622 22.375 10.7514C22.2696 10.5405 22.0588 10.4351 21.848 10.3297C21.5318 10.1189 21.2155 10.0135 20.7939 9.90812L20.4777 9.80271C20.3723 10.5405 20.0561 11.173 19.8453 11.8054Z" fill="white"/>
</g>
<defs>
<clipPath id="clip0_405_6511">
<rect width="40.0539" height="25.2972" fill="white" transform="translate(0.555664 6.10352e-05)"/>
</clipPath>
</defs>
</svg>
