<svg width="41" height="26" viewBox="0 0 41 26" fill="none" xmlns="http://www.w3.org/2000/svg">
<g clip-path="url(#clip0_405_6516)">
<path opacity="0.07" d="M37.7257 6.10352e-05H3.99613C3.15748 6.10352e-05 2.35317 0.333215 1.76016 0.926233C1.16714 1.51925 0.833984 2.32355 0.833984 3.16221L0.833984 22.1351C0.833984 22.9737 1.16714 23.7781 1.76016 24.3711C2.35317 24.9641 3.15748 25.2972 3.99613 25.2972H37.7257C38.5644 25.2972 39.3687 24.9641 39.9617 24.3711C40.5547 23.7781 40.8879 22.9737 40.8879 22.1351V3.16221C40.8879 2.32355 40.5547 1.51925 39.9617 0.926233C39.3687 0.333215 38.5644 6.10352e-05 37.7257 6.10352e-05V6.10352e-05Z" fill="black"/>
<path d="M37.7259 1.05408C38.285 1.05408 38.8212 1.27618 39.2165 1.67152C39.6119 2.06687 39.834 2.60307 39.834 3.16218V22.1351C39.834 22.6942 39.6119 23.2304 39.2165 23.6257C38.8212 24.0211 38.285 24.2432 37.7259 24.2432H3.99628C3.43718 24.2432 2.90098 24.0211 2.50563 23.6257C2.11029 23.2304 1.88818 22.6942 1.88818 22.1351V3.16218C1.88818 2.60307 2.11029 2.06687 2.50563 1.67152C2.90098 1.27618 3.43718 1.05408 3.99628 1.05408H37.7259Z" fill="white"/>
<path d="M20.8606 21.0811C25.5177 21.0811 29.293 17.3058 29.293 12.6487C29.293 7.99162 25.5177 4.21631 20.8606 4.21631C16.2035 4.21631 12.4282 7.99162 12.4282 12.6487C12.4282 17.3058 16.2035 21.0811 20.8606 21.0811Z" fill="#8DC451"/>
<path d="M23.2009 12.0478C23.3833 11.6828 23.4425 11.2686 23.3696 10.8672C23.3638 10.5897 23.2975 10.3168 23.1754 10.0675C23.0532 9.81822 22.8781 9.59861 22.6624 9.42397C22.4466 9.24934 22.1953 9.1239 21.926 9.05641C21.6568 8.98891 21.376 8.98099 21.1034 9.0332L20.8609 7.37834C20.8596 7.36447 20.8556 7.351 20.849 7.33871C20.8425 7.32642 20.8335 7.31555 20.8227 7.30672C20.812 7.2979 20.7995 7.29131 20.7862 7.28732C20.7728 7.28332 20.7588 7.28202 20.745 7.28347L20.1336 7.37834C20.1073 7.38575 20.085 7.40308 20.0712 7.42668C20.0574 7.45027 20.0534 7.47829 20.0599 7.50483L20.3444 9.17022L19.5855 9.30725L19.3009 7.68401C19.2996 7.67015 19.2956 7.65668 19.289 7.64438C19.2825 7.63209 19.2735 7.62122 19.2628 7.6124C19.252 7.60358 19.2395 7.59698 19.2262 7.59299C19.2129 7.589 19.1988 7.58769 19.185 7.58915L18.6158 7.69455C18.5917 7.70186 18.571 7.71758 18.5574 7.73885C18.5439 7.76012 18.5384 7.78554 18.542 7.8105L18.8372 9.48644L17.235 9.77103C17.2087 9.77844 17.1863 9.79577 17.1726 9.81937C17.1588 9.84296 17.1547 9.87098 17.1612 9.89752L17.2666 10.5405C17.2679 10.5544 17.272 10.5678 17.2785 10.5801C17.2851 10.5924 17.294 10.6033 17.3048 10.6121C17.3156 10.6209 17.328 10.6275 17.3414 10.6315C17.3547 10.6355 17.3687 10.6368 17.3826 10.6354H17.4774C17.5855 10.6237 17.6948 10.6336 17.799 10.6644C17.9033 10.6953 18.0003 10.7465 18.0846 10.8151C18.1689 10.8837 18.2388 10.9684 18.2902 11.0642C18.3415 11.16 18.3734 11.265 18.3839 11.3732L18.9953 14.7567C19.0408 14.9575 19.0113 15.1681 18.9123 15.3487C18.8133 15.5293 18.6516 15.6674 18.4577 15.7369C18.4372 15.7434 18.4192 15.7559 18.406 15.7728C18.3928 15.7898 18.3851 15.8104 18.3839 15.8318V16.5064C18.3716 16.5368 18.3716 16.5708 18.3839 16.6013C18.397 16.6078 18.4115 16.6112 18.4261 16.6112C18.4407 16.6112 18.4551 16.6078 18.4682 16.6013L20.0493 16.3272L20.3339 17.9505C20.339 17.9765 20.3538 17.9997 20.3753 18.0154C20.3968 18.031 20.4235 18.0379 20.4499 18.0348L21.019 17.9294C21.0453 17.922 21.0677 17.9046 21.0815 17.881C21.0952 17.8574 21.0993 17.8294 21.0928 17.8029L20.8609 16.2218L21.6093 16.0848L21.8939 17.708C21.899 17.7341 21.9138 17.7573 21.9353 17.7729C21.9568 17.7886 21.9834 17.7955 22.0098 17.7923L22.579 17.6975C22.6053 17.6901 22.6277 17.6727 22.6415 17.6491C22.6552 17.6255 22.6593 17.5975 22.6528 17.571L22.3682 15.9478L22.7477 15.8845C23.023 15.8427 23.2857 15.7408 23.5172 15.586C23.7487 15.4312 23.9433 15.2274 24.0871 14.9889C24.231 14.7505 24.3206 14.4833 24.3496 14.2064C24.3786 13.9294 24.3463 13.6495 24.255 13.3864C24.2058 13.0914 24.0836 12.8135 23.8995 12.5778C23.7154 12.3421 23.4752 12.1563 23.2009 12.0372V12.0478ZM19.8069 10.6037L20.9347 10.4035C21.1492 10.3942 21.3597 10.4631 21.5272 10.5975C21.6946 10.7318 21.8075 10.9225 21.8449 11.1339C21.8823 11.3453 21.8416 11.563 21.7304 11.7467C21.6192 11.9303 21.445 12.0673 21.2404 12.1321L20.1126 12.3324L19.8069 10.6037ZM22.0836 14.6618L20.5763 14.9253L20.2707 13.1967L21.778 12.9332C21.9924 12.9239 22.203 12.9928 22.3704 13.1272C22.5378 13.2616 22.6508 13.4522 22.6881 13.6636C22.7255 13.875 22.6848 14.0928 22.5736 14.2764C22.4624 14.46 22.2883 14.597 22.0836 14.6618Z" fill="white"/>
</g>
<defs>
<clipPath id="clip0_405_6516">
<rect width="40.0539" height="25.2972" fill="white" transform="translate(0.833984 6.10352e-05)"/>
</clipPath>
</defs>
</svg>
