<svg width="41" height="26" viewBox="0 0 41 26" fill="none" xmlns="http://www.w3.org/2000/svg">
<g clip-path="url(#clip0_405_6521)">
<path opacity="0.07" d="M37.0035 6.10352e-05H3.27396C1.48208 6.10352e-05 0.111816 1.37032 0.111816 3.16221V22.1351C0.111816 23.927 1.58749 25.2972 3.27396 25.2972H37.0035C38.7954 25.2972 40.1657 23.927 40.1657 22.1351V3.16221C40.1657 1.37032 38.69 6.10352e-05 37.0035 6.10352e-05Z" fill="black"/>
<path d="M37.0042 1.05408C38.1636 1.05408 39.1123 2.00272 39.1123 3.16217V22.1351C39.1123 23.2945 38.1636 24.2432 37.0042 24.2432H3.2746C2.11515 24.2432 1.1665 23.2945 1.1665 22.1351V3.16217C1.1665 2.00272 2.11515 1.05408 3.2746 1.05408H37.0042Z" fill="white"/>
<path d="M20.1393 21.2919C24.9128 21.2919 28.7825 17.4222 28.7825 12.6487C28.7825 7.87519 24.9128 4.00549 20.1393 4.00549C15.3658 4.00549 11.4961 7.87519 11.4961 12.6487C11.4961 17.4222 15.3658 21.2919 20.1393 21.2919Z" fill="#F5AC37"/>
<path d="M15.925 17.3517V17.3201V16.0869V14.4246C15.925 14.3551 15.925 14.3445 15.8406 14.3445H14.6917C14.6285 14.3445 14.6011 14.3445 14.6011 14.2602V13.2547H15.829C15.8986 13.2547 15.9239 13.2547 15.9239 13.164V12.169C15.9239 12.1057 15.9239 12.0899 15.8396 12.0899H14.6907C14.6274 12.0899 14.6011 12.0899 14.6011 12.0056V11.0728C14.6011 11.0148 14.6011 10.999 14.6854 10.999H15.8238C15.9039 10.999 15.925 10.999 15.925 10.8989V8.04449C15.925 7.96017 15.925 7.93909 16.0304 7.93909H20.001C20.2889 7.94973 20.5757 7.98143 20.859 8.03395C21.4424 8.14232 22.0029 8.35018 22.5159 8.64846C22.8554 8.84853 23.1684 9.09039 23.4477 9.36838C23.6566 9.58607 23.846 9.82167 24.0137 10.0725C24.1806 10.3268 24.3192 10.5986 24.4269 10.883C24.4333 10.9186 24.4536 10.9502 24.4832 10.9709C24.5128 10.9917 24.5494 10.9999 24.585 10.9937H25.5337C25.6549 10.9937 25.6549 10.9937 25.6602 11.1097V11.9782C25.6602 12.0625 25.6285 12.0836 25.5442 12.0836H24.8138C24.74 12.0836 24.7189 12.0836 24.7231 12.1795C24.7523 12.5021 24.7523 12.8267 24.7231 13.1493C24.7231 13.2388 24.7231 13.2494 24.8243 13.2494H25.6602C25.6971 13.2968 25.6602 13.3442 25.6602 13.3917C25.6656 13.4534 25.6656 13.5155 25.6602 13.5772V14.2181C25.6602 14.3077 25.6338 14.334 25.5548 14.334H24.5534C24.5198 14.328 24.4852 14.3352 24.4567 14.354C24.4283 14.3728 24.4082 14.4019 24.4006 14.4352C24.162 15.0549 23.7811 15.6099 23.2885 16.0553C23.1086 16.2175 22.9196 16.3696 22.7225 16.5106C22.5107 16.6318 22.3041 16.7594 22.0869 16.8595C21.6872 17.0394 21.2681 17.1727 20.8379 17.2569C20.4289 17.3299 20.0138 17.3634 19.5983 17.357H15.925V17.3517ZM23.2358 14.3551C23.1462 14.3445 23.0556 14.3445 22.966 14.3551H17.095C17.0148 14.3551 16.9895 14.3551 16.9895 14.4605V16.2987C16.9895 16.3831 16.9895 16.4042 17.095 16.4042H19.8049C19.9345 16.4139 20.0647 16.405 20.1917 16.3778C20.585 16.3494 20.9721 16.2638 21.3407 16.1238C21.4753 16.0772 21.6049 16.0172 21.7275 15.9446H21.7644C22.3994 15.6141 22.9157 15.0939 23.2411 14.4563C23.2411 14.4563 23.278 14.3719 23.2358 14.3509V14.3551ZM23.2358 10.9885C23.2452 10.9648 23.2452 10.9384 23.2358 10.9147C23.183 10.7977 23.1195 10.6858 23.0461 10.5805C22.9346 10.4018 22.8027 10.2366 22.653 10.0883C22.5829 9.99859 22.5014 9.9185 22.4105 9.85008C21.9522 9.46002 21.4078 9.18438 20.8221 9.04584C20.5269 8.97765 20.2249 8.9437 19.9219 8.94465H17.0791C16.999 8.94465 16.9885 8.97627 16.9885 9.04584V10.9252C16.9885 11.0043 16.9885 11.0253 17.0897 11.0253H23.199C23.199 11.0253 23.2517 11.0148 23.2622 10.9832L23.2358 10.9885ZM20.2708 13.2547H23.4899C23.5584 13.2547 23.59 13.2547 23.5953 13.164C23.6217 12.8364 23.6217 12.5072 23.5953 12.1795C23.5953 12.1163 23.5637 12.0899 23.4951 12.0899H17.0897C17.0096 12.0899 16.9885 12.1163 16.9885 12.1901V13.1282C16.9885 13.2494 16.9885 13.2494 17.115 13.2494L20.2708 13.2547Z" fill="white"/>
</g>
<defs>
<clipPath id="clip0_405_6521">
<rect width="40.0539" height="25.2972" fill="white" transform="translate(0.111816 6.10352e-05)"/>
</clipPath>
</defs>
</svg>
