<svg width="41" height="26" viewBox="0 0 41 26" fill="none" xmlns="http://www.w3.org/2000/svg">
<g clip-path="url(#clip0_405_6526)">
<path opacity="0.07" d="M37.2814 6.10352e-05H3.5518C1.75991 6.10352e-05 0.389648 1.37032 0.389648 3.16221V22.1351C0.389648 23.927 1.86532 25.2972 3.5518 25.2972H37.2814C39.0732 25.2972 40.4435 23.927 40.4435 22.1351V3.16221C40.4435 1.37032 38.9678 6.10352e-05 37.2814 6.10352e-05Z" fill="black"/>
<path d="M37.2815 1.05408C38.441 1.05408 39.3896 2.00272 39.3896 3.16218V22.1351C39.3896 23.2945 38.441 24.2432 37.2815 24.2432H3.55195C2.39249 24.2432 1.44385 23.2945 1.44385 22.1351V3.16218C1.44385 2.00272 2.39249 1.05408 3.55195 1.05408H37.2815Z" fill="white"/>
<path d="M13.0393 12.6487V16.5487C13.0393 16.8649 12.8284 16.8649 12.5122 16.7595C10.5095 15.9162 9.35008 13.2811 10.0879 11.0676C10.5095 9.90814 11.3528 8.9595 12.5122 8.53788C12.9338 8.32707 13.0393 8.43247 13.0393 8.74869V12.6487ZM15.1474 12.6487V8.74869C15.1474 8.43247 15.1474 8.43247 15.4636 8.53788C17.6771 9.38112 18.8365 12.0162 17.9933 14.2297C17.5717 15.3892 16.7284 16.3378 15.569 16.7595C15.1474 16.9703 15.1474 16.8649 15.1474 16.5487V12.6487ZM22.7365 5.27032H14.0933C18.0987 5.27032 21.2608 8.53788 21.2608 12.6487C21.2608 16.7595 18.0987 20.027 14.0933 20.027H22.7365C26.7419 20.027 29.904 16.7595 29.904 12.6487C29.904 8.53788 26.7419 5.27032 22.7365 5.27032Z" fill="#3086C8"/>
</g>
<defs>
<clipPath id="clip0_405_6526">
<rect width="40.0539" height="25.2972" fill="white" transform="translate(0.389648 6.10352e-05)"/>
</clipPath>
</defs>
</svg>
