<svg width="41" height="26" viewBox="0 0 41 26" fill="none" xmlns="http://www.w3.org/2000/svg">
<g clip-path="url(#clip0_405_6530)">
<path opacity="0.07" d="M37.5592 6.10352e-05H3.82963C2.03774 6.10352e-05 0.66748 1.37032 0.66748 3.16221V22.1351C0.66748 23.927 2.14315 25.2972 3.82963 25.2972H37.5592C39.3511 25.2972 40.7213 23.927 40.7213 22.1351V3.16221C40.7213 1.37032 39.2457 6.10352e-05 37.5592 6.10352e-05Z" fill="black"/>
<path d="M37.5589 1.05408C38.7183 1.05408 39.667 2.00272 39.667 3.16218V22.1351C39.667 23.2945 38.7183 24.2432 37.5589 24.2432H3.82929C2.66984 24.2432 1.72119 23.2945 1.72119 22.1351V3.16218C1.72119 2.00272 2.66984 1.05408 3.82929 1.05408H37.5589Z" fill="white"/>
<path d="M4.43025 7.54708H2.77539V13.3443H4.43025C5.30511 13.3443 5.93754 13.1335 6.49618 12.6803C7.16024 12.1322 7.55023 11.31 7.55023 10.4563C7.53969 8.73815 6.26429 7.54708 4.43025 7.54708ZM5.75835 11.9108C5.39997 12.2271 4.94673 12.3746 4.2089 12.3746H3.90322V8.53789H4.2089C4.93619 8.53789 5.37889 8.66437 5.75835 9.00167C6.14835 9.3495 6.38024 9.88707 6.38024 10.4457C6.38024 11.0044 6.14835 11.563 5.75835 11.9108ZM8.06672 7.54708H9.19455V13.3443H8.06672V7.54708ZM11.9562 9.77112C11.2816 9.51815 11.0813 9.3495 11.0813 9.04383C11.0813 8.67491 11.4397 8.40086 11.9245 8.40086C12.2618 8.40086 12.5464 8.53789 12.831 8.87518L13.4213 8.10573C12.9364 7.68411 12.3567 7.46276 11.7137 7.46276C10.6913 7.46276 9.90076 8.17951 9.90076 9.12815C9.90076 9.92923 10.2697 10.3403 11.3237 10.7198C11.7664 10.8779 11.9878 10.9833 12.1037 11.0465C12.3251 11.1941 12.441 11.4049 12.441 11.6473C12.441 12.1217 12.0721 12.4695 11.5662 12.4695C11.0286 12.4695 10.5964 12.1954 10.3329 11.7L9.60563 12.4062C10.1221 13.1757 10.7545 13.513 11.6083 13.513C12.7783 13.513 13.611 12.733 13.611 11.6052C13.6321 10.6671 13.2421 10.2454 11.9562 9.77112ZM13.9799 10.4563C13.9799 12.1638 15.3186 13.4814 17.0367 13.4814C17.5215 13.4814 17.9432 13.3865 18.4491 13.1441V11.816C17.9959 12.2692 17.5953 12.4484 17.0894 12.4484C15.951 12.4484 15.1394 11.6262 15.1394 10.4457C15.1394 9.32842 15.9721 8.45356 17.0367 8.45356C17.5742 8.45356 17.9853 8.64329 18.4491 9.10707V7.77897C17.9537 7.526 17.5426 7.42059 17.0578 7.42059C15.3607 7.42059 13.9799 8.76978 13.9799 10.4563ZM27.4296 11.4471L25.8801 7.54708H24.6469L27.1028 13.4919H27.7142L30.2123 7.54708H28.9896L27.4296 11.4471ZM30.7288 13.3443H33.9331V12.3641H31.8566V10.8041H33.8593V9.82383H31.8566V8.53789H33.9331V7.54708H30.7288V13.3443ZM38.4128 9.26518C38.4128 8.17951 37.6644 7.55762 36.3574 7.55762H34.6815V13.3549H35.8093V11.0254H35.9569L37.5168 13.3549H38.9082L37.0847 10.9095C37.9385 10.7303 38.4128 10.1506 38.4128 9.26518ZM36.136 10.2244H35.8093V8.4641H36.1571C36.8633 8.4641 37.2428 8.75924 37.2428 9.32842C37.2428 9.90815 36.8633 10.2244 36.136 10.2244Z" fill="#231F20"/>
<path d="M21.9175 13.5551C22.7369 13.5551 23.5227 13.2296 24.1021 12.6502C24.6815 12.0709 25.007 11.2851 25.007 10.4657C25.007 9.64633 24.6815 8.86053 24.1021 8.28115C23.5227 7.70177 22.7369 7.37628 21.9175 7.37628C21.0982 7.37628 20.3124 7.70177 19.733 8.28115C19.1536 8.86053 18.8281 9.64633 18.8281 10.4657C18.8281 11.2851 19.1536 12.0709 19.733 12.6502C20.3124 13.2296 21.0982 13.5551 21.9175 13.5551Z" fill="url(#paint0_linear_405_6530)"/>
<path opacity="0.65" d="M21.9175 13.5551C22.7369 13.5551 23.5227 13.2296 24.1021 12.6502C24.6815 12.0709 25.007 11.2851 25.007 10.4657C25.007 9.64633 24.6815 8.86053 24.1021 8.28115C23.5227 7.70177 22.7369 7.37628 21.9175 7.37628C21.0982 7.37628 20.3124 7.70177 19.733 8.28115C19.1536 8.86053 18.8281 9.64633 18.8281 10.4657C18.8281 11.2851 19.1536 12.0709 19.733 12.6502C20.3124 13.2296 21.0982 13.5551 21.9175 13.5551Z" fill="url(#paint1_linear_405_6530)"/>
<path d="M39.2131 7.91145C39.2131 7.80626 39.1395 7.75366 39.0238 7.75366H38.8555V8.25857H38.9817V8.05871L39.129 8.25857H39.2762L39.1079 8.04819C39.171 8.03767 39.2131 7.98508 39.2131 7.91145ZM39.0027 7.98508H38.9817V7.84833H39.0027C39.0658 7.84833 39.0974 7.86937 39.0974 7.91145C39.0974 7.96404 39.0658 7.98508 39.0027 7.98508Z" fill="#231F20"/>
<path d="M39.0452 7.56378C38.8028 7.56378 38.6025 7.76405 38.6025 8.00648C38.6025 8.24891 38.8028 8.44918 39.0452 8.44918C39.2877 8.44918 39.4879 8.24891 39.4879 8.00648C39.4879 7.76405 39.2877 7.56378 39.0452 7.56378ZM39.0452 8.3754C38.8555 8.3754 38.6869 8.21729 38.6869 8.00648C38.6869 7.80621 38.845 7.63756 39.0452 7.63756C39.235 7.63756 39.3931 7.80621 39.3931 8.00648C39.3931 8.20675 39.235 8.3754 39.0452 8.3754Z" fill="#231F20"/>
<path d="M39.6676 13.6858C39.6676 13.6858 29.222 20.9471 10.1289 24.2431H37.5584C38.1146 24.2432 38.6483 24.0234 39.0431 23.6317C39.438 23.24 39.6621 22.7081 39.6665 22.1519L39.6918 18.9687L39.6676 13.6868V13.6858Z" fill="#F48120"/>
</g>
<defs>
<linearGradient id="paint0_linear_405_6530" x1="23.4955" y1="12.9385" x2="21.361" y2="9.59611" gradientUnits="userSpaceOnUse">
<stop stop-color="#F89F20"/>
<stop offset="0.25" stop-color="#F79A20"/>
<stop offset="0.533" stop-color="#F68D20"/>
<stop offset="0.62" stop-color="#F58720"/>
<stop offset="0.723" stop-color="#F48120"/>
<stop offset="1" stop-color="#F37521"/>
</linearGradient>
<linearGradient id="paint1_linear_405_6530" x1="23.1592" y1="12.8932" x2="20.0392" y2="6.79445" gradientUnits="userSpaceOnUse">
<stop stop-color="#F58720"/>
<stop offset="0.359" stop-color="#E16F27"/>
<stop offset="0.703" stop-color="#D4602C"/>
<stop offset="0.982" stop-color="#D05B2E"/>
</linearGradient>
<clipPath id="clip0_405_6530">
<rect width="40.0539" height="25.2972" fill="white" transform="translate(0.66748 6.10352e-05)"/>
</clipPath>
</defs>
</svg>
