<svg width="41" height="26" viewBox="0 0 41 26" fill="none" xmlns="http://www.w3.org/2000/svg">
<g clip-path="url(#clip0_405_6539)">
<path d="M38.5936 25.2414H3.64449C3.10435 25.2397 2.58681 25.0244 2.20487 24.6425C1.82293 24.2605 1.60762 23.743 1.60596 23.2029V2.99568C1.60762 2.45554 1.82293 1.938 2.20487 1.55607C2.58681 1.17413 3.10435 0.958821 3.64449 0.957153H38.5936C39.1337 0.958821 39.6513 1.17413 40.0332 1.55607C40.4151 1.938 40.6305 2.45554 40.6321 2.99568V23.2029C40.6305 23.743 40.4151 24.2605 40.0332 24.6425C39.6513 25.0244 39.1337 25.2397 38.5936 25.2414Z" fill="white"/>
<path opacity="0.25" d="M38.578 25.7464H3.65946C2.24282 25.7464 1.0918 24.6112 1.0918 23.2167V2.97894C1.0918 1.58443 2.24282 0.449219 3.65946 0.449219H38.578C39.9946 0.449219 41.1457 1.58443 41.1457 2.97894V23.2167C41.1457 24.6112 39.9946 25.7464 38.578 25.7464ZM3.65946 1.4611C2.8099 1.4611 2.11844 2.14202 2.11844 2.97894V23.2167C2.11844 24.0536 2.8099 24.7345 3.65946 24.7345H38.578C39.4276 24.7345 40.119 24.0536 40.119 23.2167V2.97894C40.119 2.14202 39.4276 1.4611 38.578 1.4611H3.65946Z" fill="#A7A8AB"/>
<path d="M20.9736 20.7321C25.438 20.7321 29.0571 17.113 29.0571 12.6486C29.0571 8.18417 25.438 4.56506 20.9736 4.56506C16.5092 4.56506 12.8901 8.18417 12.8901 12.6486C12.8901 17.113 16.5092 20.7321 20.9736 20.7321Z" fill="#CBA747"/>
<path d="M25.6258 11.5988C25.3149 9.75105 23.8339 8.80768 23.0845 8.56525C22.3351 8.32598 17.3789 8.42506 17.3789 8.42506C17.2672 8.56208 17.3357 10.4256 17.3357 10.4256L18.4646 10.4193L18.4868 11.8507H17.5128C17.4981 11.8506 17.4835 11.8534 17.4699 11.8589C17.4563 11.8645 17.4439 11.8727 17.4335 11.8831C17.4231 11.8935 17.4149 11.9059 17.4093 11.9195C17.4037 11.9331 17.4009 11.9477 17.4011 11.9624V13.3749C17.4011 13.4371 17.4506 13.4866 17.5128 13.4866H18.5026C18.5057 14.2487 18.4962 14.859 18.4657 14.8706C18.3813 14.9043 17.4643 14.8242 17.3737 14.8864C17.2862 14.9454 17.3336 16.05 17.3336 16.4727C17.3305 16.8954 17.4454 16.8775 17.4454 16.8775C22.6998 16.7436 22.5722 17.2264 24.0532 16.3389C25.5341 15.4524 25.942 13.4487 25.6269 11.5977L25.6258 11.5988ZM20.0309 14.8653V13.4687L21.7185 13.4866C21.7485 13.4869 21.7774 13.4753 21.7989 13.4544C21.8204 13.4335 21.8328 13.4049 21.8334 13.3749V11.9624C21.8328 11.9324 21.8204 11.9039 21.7989 11.8829C21.7774 11.862 21.7485 11.8504 21.7185 11.8507L20.0309 11.8539V10.2949C20.0309 10.2949 23.8951 9.867 23.8951 12.7646C23.8951 15.5494 20.0309 14.8653 20.0309 14.8653Z" fill="white"/>
</g>
<defs>
<clipPath id="clip0_405_6539">
<rect width="40.0539" height="25.2972" fill="white" transform="translate(0.946777 6.10352e-05)"/>
</clipPath>
</defs>
</svg>
