<svg width="41" height="27" viewBox="0 0 41 27" fill="none" xmlns="http://www.w3.org/2000/svg">
<g clip-path="url(#clip0_405_6544)">
<path d="M36.8917 0.959045H3.16215C1.41574 0.959045 0 2.37479 0 4.12119V23.0941C0 24.8405 1.41574 26.2562 3.16215 26.2562H36.8917C38.6381 26.2562 40.0539 24.8405 40.0539 23.0941V4.12119C40.0539 2.37479 38.6381 0.959045 36.8917 0.959045Z" fill="black" fill-opacity="0.07"/>
<path d="M36.8919 2.01306H3.1623C1.99803 2.01306 1.0542 2.95689 1.0542 4.12116V23.094C1.0542 24.2583 1.99803 25.2021 3.1623 25.2021H36.8919C38.0561 25.2021 39 24.2583 39 23.094V4.12116C39 2.95689 38.0561 2.01306 36.8919 2.01306Z" fill="white"/>
<path d="M19.6654 5.43878L19.5579 5.80348V16.3798L19.6654 16.4863L24.5741 13.5845L19.6654 5.43878Z" fill="#343434"/>
<path d="M19.6661 5.43878L14.7563 13.5845L19.6661 16.4873V11.3541V5.43878Z" fill="#8C8C8C"/>
<path d="M19.6664 17.4159L19.6052 17.4897V21.2579L19.6664 21.434L24.5782 14.5162L19.6664 17.4159Z" fill="#3C3C3B"/>
<path d="M19.6659 21.434V17.4159L14.7561 14.5162L19.6659 21.434Z" fill="#8C8C8C"/>
<path d="M19.6653 16.4862L24.574 13.5844L19.6653 11.353V16.4862Z" fill="#141414"/>
<path d="M14.7561 13.5844L19.6659 16.4862V11.353L14.7561 13.5844Z" fill="#393939"/>
</g>
<defs>
<clipPath id="clip0_405_6544">
<rect width="40.0539" height="25.2972" fill="white" transform="translate(0 0.959045)"/>
</clipPath>
</defs>
</svg>
