<svg width="41" height="27" viewBox="0 0 41 27" fill="none" xmlns="http://www.w3.org/2000/svg">
<g clip-path="url(#clip0_405_6555)">
<path opacity="0.07" d="M37.1696 0.959045H3.43998C1.6481 0.959045 0.277832 2.32931 0.277832 4.12119V23.0941C0.277832 24.886 1.7535 26.2562 3.43998 26.2562H37.1696C38.9614 26.2562 40.3317 24.886 40.3317 23.0941V4.12119C40.3317 2.32931 38.856 0.959045 37.1696 0.959045Z" fill="black"/>
<path d="M37.1692 2.01306C38.3287 2.01306 39.2773 2.96171 39.2773 4.12116V23.094C39.2773 24.2535 38.3287 25.2021 37.1692 25.2021H3.43964C2.28019 25.2021 1.33154 24.2535 1.33154 23.094V4.12116C1.33154 2.96171 2.28019 2.01306 3.43964 2.01306H37.1692Z" fill="white"/>
<path fill-rule="evenodd" clip-rule="evenodd" d="M12.3988 6.22937H16.088V18.3509C16.088 19.0498 15.8103 19.7201 15.3162 20.2142C14.822 20.7084 14.1517 20.9861 13.4528 20.9861H9.76367V8.86449C9.76367 8.16562 10.0413 7.49536 10.5355 7.00118C11.0297 6.507 11.6999 6.22937 12.3988 6.22937Z" fill="#006EBC"/>
<path fill-rule="evenodd" clip-rule="evenodd" d="M19.7779 6.22937H23.4671V18.3509C23.4671 19.0498 23.1895 19.7201 22.6953 20.2142C22.2011 20.7084 21.5309 20.9861 20.832 20.9861H17.1428V8.86449C17.1428 8.16562 17.4205 7.49536 17.9146 7.00118C18.4088 6.507 19.0791 6.22937 19.7779 6.22937Z" fill="#F00036"/>
<path fill-rule="evenodd" clip-rule="evenodd" d="M27.1559 6.22937H30.845V18.3509C30.845 19.0498 30.5674 19.7201 30.0732 20.2142C29.5791 20.7084 28.9088 20.9861 28.2099 20.9861H24.5208V8.86449C24.5208 8.16562 24.7984 7.49536 25.2926 7.00118C25.7867 6.507 26.457 6.22937 27.1559 6.22937Z" fill="#2AB419"/>
<path d="M11.6135 16.2428C10.4962 16.2428 9.37683 15.9224 8.81396 15.2025L9.63612 14.4899C9.7078 15.6842 13.3727 15.7969 13.3727 14.2897V10.9726H15.2721V14.2897C15.2721 15.057 14.6671 15.6831 13.6141 16.0099C13.1229 16.1616 12.1753 16.2428 11.6135 16.2428ZM20.1682 16.2428C19.4578 16.2428 18.7052 16.13 18.097 15.857C17.0977 15.4091 16.7141 14.5858 16.7267 13.5392C16.7394 12.4704 17.1863 11.6609 18.2741 11.2572C19.6643 10.7407 21.7977 10.9821 22.4123 11.5418V12.5663C21.8093 12.0171 20.3484 11.6198 19.3355 12.0814C18.8148 12.3196 18.5587 13.048 18.5513 13.6077C18.5449 14.198 18.8095 14.9274 19.3355 15.1856C20.34 15.6778 21.8547 15.2278 22.4123 14.7208V15.7854C22.0349 16.0541 21.0915 16.2428 20.1682 16.2428ZM29.3163 13.516C29.7063 13.2683 29.9297 12.9183 29.9297 12.4567C29.9297 11.995 29.8075 11.7325 29.5629 11.4669C29.3458 11.2487 28.9516 10.9726 28.258 10.9726H24.5204V16.2428H28.258C28.9916 16.2428 29.4143 16.0004 29.6441 15.8054C29.9424 15.5419 30.0931 15.2467 30.0931 14.7935C30.0931 14.3392 29.9297 13.8364 29.3163 13.516ZM27.3073 13.2198H25.8021V11.6978H27.3779C28.3856 11.6978 28.3729 13.2198 27.3073 13.2198ZM27.6108 15.4934H25.8021V13.8986H27.6108C28.6501 13.8986 28.7524 15.4934 27.6108 15.4934Z" fill="white"/>
</g>
<defs>
<clipPath id="clip0_405_6555">
<rect width="40.0539" height="25.2972" fill="white" transform="translate(0.277832 0.959045)"/>
</clipPath>
</defs>
</svg>
