<svg width="41" height="27" viewBox="0 0 41 27" fill="none" xmlns="http://www.w3.org/2000/svg">
<g clip-path="url(#clip0_405_6564)">
<path d="M38.0798 26.2562H3.08538C1.71512 26.2562 0.555664 25.0968 0.555664 23.7265V3.48876C0.555664 2.1185 1.71512 0.959045 3.08538 0.959045H38.0798C39.4501 0.959045 40.6095 2.1185 40.6095 3.48876V23.7265C40.6095 25.0968 39.4501 26.2562 38.0798 26.2562Z" fill="white"/>
<path opacity="0.25" d="M38.0798 26.2562H3.08538C1.71512 26.2562 0.555664 25.0968 0.555664 23.7265V3.48876C0.555664 2.1185 1.71512 0.959045 3.08538 0.959045H37.9744C39.4501 0.959045 40.6095 2.1185 40.6095 3.48876V23.7265C40.6095 25.0968 39.4501 26.2562 38.0798 26.2562ZM3.08538 2.01309C2.24214 2.01309 1.60971 2.64552 1.60971 3.48876V23.7265C1.60971 24.5697 2.24214 25.2022 3.08538 25.2022H37.9744C38.8176 25.2022 39.5555 24.5697 39.5555 23.7265V3.48876C39.5555 2.64552 38.923 2.01309 38.0798 2.01309H3.08538Z" fill="#A8AAAD"/>
<path d="M20.5827 22.2509C25.3562 22.2509 29.2259 18.3812 29.2259 13.6077C29.2259 8.83417 25.3562 4.96448 20.5827 4.96448C15.8091 4.96448 11.9395 8.83417 11.9395 13.6077C11.9395 18.3812 15.8091 22.2509 20.5827 22.2509Z" fill="#58595B"/>
<path d="M19.7401 8.86444L18.4752 13.6077L17.4212 14.0293L17.105 15.1887L18.159 14.7671L17.4212 17.613H24.6941L25.1158 15.9266H20.5833L21.2158 13.6077L22.4806 13.186L22.7968 12.0266L21.532 12.5536L22.4806 8.86444H19.7401Z" fill="white"/>
</g>
<defs>
<clipPath id="clip0_405_6564">
<rect width="40.0539" height="25.2972" fill="white" transform="translate(0.555664 0.959045)"/>
</clipPath>
</defs>
</svg>
