<svg width="41" height="27" viewBox="0 0 41 27" fill="none" xmlns="http://www.w3.org/2000/svg">
<g clip-path="url(#clip0_405_6569)">
<path opacity="0.07" d="M37.7257 0.959045H3.99613C2.20425 0.959045 0.833984 2.32931 0.833984 4.12119V23.0941C0.833984 24.886 2.30965 26.2562 3.99613 26.2562H37.7257C39.5176 26.2562 40.8879 24.886 40.8879 23.0941V4.12119C40.8879 2.32931 39.4122 0.959045 37.7257 0.959045Z" fill="black"/>
<path d="M37.7259 2.01306C38.8853 2.01306 39.834 2.96171 39.834 4.12116V23.094C39.834 24.2535 38.8853 25.2021 37.7259 25.2021H3.99628C2.83683 25.2021 1.88818 24.2535 1.88818 23.094V4.12116C1.88818 2.96171 2.83683 2.01306 3.99628 2.01306H37.7259Z" fill="white"/>
<path d="M16.6454 20.9861C20.7204 20.9861 24.0238 17.6827 24.0238 13.6077C24.0238 9.53277 20.7204 6.22937 16.6454 6.22937C12.5705 6.22937 9.26709 9.53277 9.26709 13.6077C9.26709 17.6827 12.5705 20.9861 16.6454 20.9861Z" fill="#EB001B"/>
<path d="M25.0776 20.9861C29.1525 20.9861 32.4559 17.6827 32.4559 13.6077C32.4559 9.53277 29.1525 6.22937 25.0776 6.22937C21.0026 6.22937 17.6992 9.53277 17.6992 13.6077C17.6992 17.6827 21.0026 20.9861 25.0776 20.9861Z" fill="#F79E1B"/>
<path d="M24.0235 13.6077C24.0235 11.078 22.7587 8.86447 20.8614 7.59961C18.9641 8.96987 17.6992 11.1834 17.6992 13.6077C17.6992 16.032 18.9641 18.3509 20.8614 19.6158C22.7587 18.3509 24.0235 16.1374 24.0235 13.6077Z" fill="#FF5F00"/>
</g>
<defs>
<clipPath id="clip0_405_6569">
<rect width="40.0539" height="25.2972" fill="white" transform="translate(0.833984 0.959045)"/>
</clipPath>
</defs>
</svg>
