<svg width="41" height="27" viewBox="0 0 41 27" fill="none" xmlns="http://www.w3.org/2000/svg">
<g clip-path="url(#clip0_405_6575)">
<path opacity="0.07" d="M37.0035 0.959045H3.27396C1.48208 0.959045 0.111816 2.32931 0.111816 4.12119V23.0941C0.111816 24.886 1.58749 26.2562 3.27396 26.2562H37.0035C38.7954 26.2562 40.1657 24.886 40.1657 23.0941V4.12119C40.1657 2.32931 38.69 0.959045 37.0035 0.959045Z" fill="black"/>
<path d="M37.0042 2.01306C38.1636 2.01306 39.1123 2.96171 39.1123 4.12116V23.094C39.1123 24.2535 38.1636 25.2021 37.0042 25.2021H3.2746C2.11515 25.2021 1.1665 24.2535 1.1665 23.094V4.12116C1.1665 2.96171 2.11515 2.01306 3.2746 2.01306H37.0042Z" fill="white"/>
<path d="M25.3042 9.70773C25.515 8.65368 25.3042 7.91585 24.6718 7.28342C24.0394 6.54558 22.8799 6.22937 21.4042 6.22937H17.0826C16.7664 6.22937 16.5556 6.44018 16.4502 6.75639L14.8691 17.4023C14.8691 17.6131 14.9745 17.8239 15.1854 17.8239H18.0313L18.4529 14.2401L20.3502 11.9212L25.3042 9.70773Z" fill="#003087"/>
<path d="M25.3044 9.7077L25.0936 9.91851C24.5666 12.8698 22.7747 13.9239 20.245 13.9239H19.0855C18.7693 13.9239 18.5585 14.1347 18.4531 14.4509L17.8207 18.5617L17.6099 19.6158C17.6099 19.8266 17.7153 20.0374 17.9261 20.0374H20.1396C20.4558 20.0374 20.6666 19.8266 20.6666 19.6158V19.5104L21.0882 16.9806V16.8752C21.0882 16.6644 21.4044 16.4536 21.6152 16.4536H21.9315C24.145 16.4536 25.8314 15.6104 26.2531 13.0807C26.4639 12.0266 26.3585 11.1834 25.8314 10.5509C25.726 10.0239 25.5152 9.81311 25.3044 9.7077Z" fill="#3086C8"/>
<path d="M24.672 9.49694C24.5666 9.39154 24.4612 9.39153 24.3558 9.39153C24.2504 9.39153 24.145 9.39153 24.0396 9.28613C23.7234 9.18072 23.3018 9.18073 22.8801 9.18073H19.718C19.6126 9.18073 19.5072 9.18072 19.5072 9.28613C19.2964 9.39153 19.191 9.49694 19.191 9.70775L18.4531 14.3456V14.451C18.4531 14.1348 18.7693 13.9239 19.0856 13.9239H20.4558C23.0909 13.9239 24.7774 12.8699 25.3044 9.91856V9.70775C25.199 9.60234 24.9882 9.49694 24.7774 9.49694H24.672Z" fill="#012169"/>
</g>
<defs>
<clipPath id="clip0_405_6575">
<rect width="40.0539" height="25.2972" fill="white" transform="translate(0.111816 0.959045)"/>
</clipPath>
</defs>
</svg>
