<svg width="41" height="27" viewBox="0 0 41 27" fill="none" xmlns="http://www.w3.org/2000/svg">
<g clip-path="url(#clip0_405_6581)">
<path opacity="0.07" d="M37.2814 0.959045H3.5518C1.75991 0.959045 0.389648 2.32931 0.389648 4.12119V23.0941C0.389648 24.886 1.86532 26.2562 3.5518 26.2562H37.2814C39.0732 26.2562 40.4435 24.886 40.4435 23.0941V4.12119C40.4435 2.32931 38.9678 0.959045 37.2814 0.959045Z" fill="black"/>
<path d="M37.2815 2.01306C38.441 2.01306 39.3896 2.96171 39.3896 4.12116V23.094C39.3896 24.2535 38.441 25.2021 37.2815 25.2021H3.55195C2.39249 25.2021 1.44385 24.2535 1.44385 23.094V4.12116C1.44385 2.96171 2.39249 2.01306 3.55195 2.01306H37.2815Z" fill="white"/>
<path d="M20.4166 22.2509C25.1901 22.2509 29.0598 18.3812 29.0598 13.6077C29.0598 8.83417 25.1901 4.96448 20.4166 4.96448C15.6431 4.96448 11.7734 8.83417 11.7734 13.6077C11.7734 18.3812 15.6431 22.2509 20.4166 22.2509Z" fill="#1652F0"/>
<path d="M22.5035 14.7187C22.5035 13.6277 21.8405 13.2599 20.5567 13.0828C19.608 12.9458 19.4236 12.7244 19.4236 12.2817C19.4236 11.839 19.7451 11.5628 20.3596 11.5628C20.9182 11.5628 21.2418 11.7568 21.3746 12.2079C21.3887 12.2571 21.4182 12.3005 21.4588 12.3317C21.4994 12.3628 21.549 12.38 21.6002 12.3808H22.0914C22.1235 12.3812 22.1552 12.3746 22.1845 12.3614C22.2137 12.3482 22.2397 12.3288 22.2606 12.3045C22.2815 12.2802 22.2968 12.2515 22.3055 12.2206C22.3141 12.1898 22.3159 12.1574 22.3106 12.1257C22.1546 11.4142 21.675 10.9852 20.9224 10.8514V10.1009C20.9224 10.039 20.8979 9.97964 20.8543 9.93579C20.8106 9.89194 20.7514 9.86716 20.6895 9.86688H20.2205C20.1584 9.86688 20.0989 9.89154 20.055 9.93542C20.0111 9.9793 19.9865 10.0388 19.9865 10.1009V10.825C19.0526 10.9568 18.4612 11.5734 18.4612 12.366C18.4612 13.3885 19.0852 13.7869 20.388 13.9629C21.2734 14.1084 21.5264 14.3002 21.5264 14.803C21.5264 15.3068 21.0985 15.6441 20.4935 15.6441C19.6787 15.6441 19.4025 15.2879 19.3108 14.8251C19.3001 14.7719 19.2715 14.724 19.2296 14.6894C19.1878 14.6549 19.1353 14.6358 19.081 14.6354H18.5487C18.5169 14.635 18.4854 14.6415 18.4564 14.6546C18.4275 14.6677 18.4017 14.687 18.381 14.7111C18.3603 14.7352 18.3451 14.7636 18.3366 14.7942C18.328 14.8249 18.3263 14.857 18.3316 14.8884C18.4686 15.6684 18.9682 16.2376 19.9865 16.3746V17.1145C19.9865 17.1766 20.0111 17.2361 20.055 17.28C20.0989 17.3239 20.1584 17.3485 20.2205 17.3485H20.6895C20.7514 17.3482 20.8106 17.3235 20.8543 17.2796C20.8979 17.2358 20.9224 17.1764 20.9224 17.1145V16.3767C21.889 16.2228 22.5035 15.5556 22.5035 14.7187Z" fill="white"/>
<path d="M18.646 18.4532C17.6531 18.0896 16.7959 17.4298 16.1902 16.5631C15.5846 15.6964 15.2598 14.6645 15.2598 13.6072C15.2598 12.5498 15.5846 11.518 16.1902 10.6512C16.7959 9.78451 17.6531 9.12474 18.646 8.76118C18.7097 8.73317 18.7642 8.68792 18.8035 8.63056C18.8428 8.5732 18.8653 8.506 18.8684 8.43654V7.95378C18.8727 7.91114 18.8656 7.86814 18.8479 7.82911C18.8303 7.79008 18.8026 7.75641 18.7677 7.73149C18.7329 7.70658 18.6921 7.6913 18.6494 7.68721C18.6067 7.68312 18.5638 7.69035 18.5248 7.70819C17.2735 8.1071 16.1814 8.89361 15.4065 9.95402C14.6315 11.0144 14.2139 12.2938 14.2139 13.6072C14.2139 14.9206 14.6315 16.1999 15.4065 17.2603C16.1814 18.3207 17.2735 19.1072 18.5248 19.5062C18.5638 19.524 18.6067 19.5312 18.6494 19.5271C18.6921 19.523 18.7329 19.5078 18.7677 19.4829C18.8026 19.4579 18.8303 19.4243 18.8479 19.3852C18.8656 19.3462 18.8727 19.3032 18.8684 19.2606V18.7799C18.8656 18.7104 18.8433 18.643 18.8042 18.5855C18.7651 18.5279 18.7107 18.4825 18.6471 18.4542L18.646 18.4532ZM22.3078 7.70924C22.2688 7.69175 22.2259 7.68478 22.1834 7.68901C22.1409 7.69325 22.1002 7.70856 22.0655 7.7334C22.0307 7.75824 22.0031 7.79176 21.9853 7.83061C21.9675 7.86946 21.9602 7.91229 21.9642 7.95484V8.43654C21.9671 8.50606 21.9895 8.57337 22.0288 8.63077C22.0681 8.68818 22.1228 8.73337 22.1866 8.76118C23.1798 9.12453 24.0375 9.78428 24.6434 10.6511C25.2493 11.518 25.5743 12.5501 25.5743 13.6077C25.5743 14.6653 25.2493 15.6974 24.6434 16.5643C24.0375 17.4311 23.1798 18.0909 22.1866 18.4542C22.1207 18.4793 22.0642 18.524 22.0246 18.5822C21.985 18.6405 21.9643 18.7095 21.9652 18.7799V19.2616C21.9613 19.3042 21.9686 19.347 21.9864 19.3858C22.0041 19.4247 22.0318 19.4582 22.0665 19.4831C22.1013 19.5079 22.142 19.5232 22.1845 19.5274C22.227 19.5317 22.2699 19.5247 22.3088 19.5072C23.5602 19.1083 24.6523 18.3218 25.4272 17.2614C26.2021 16.201 26.6198 14.9216 26.6198 13.6082C26.6198 12.2948 26.2021 11.0155 25.4272 9.95507C24.6523 8.89466 23.5602 8.10816 22.3088 7.70924H22.3078Z" fill="white"/>
</g>
<defs>
<clipPath id="clip0_405_6581">
<rect width="40.0539" height="25.2972" fill="white" transform="translate(0.389648 0.959045)"/>
</clipPath>
</defs>
</svg>
