<svg width="41" height="27" viewBox="0 0 41 27" fill="none" xmlns="http://www.w3.org/2000/svg">
<g clip-path="url(#clip0_405_6587)">
<path d="M37.5592 0.959045H3.82963C2.08322 0.959045 0.66748 2.37479 0.66748 4.12119V23.0941C0.66748 24.8405 2.08322 26.2562 3.82963 26.2562H37.5592C39.3056 26.2562 40.7213 24.8405 40.7213 23.0941V4.12119C40.7213 2.37479 39.3056 0.959045 37.5592 0.959045Z" fill="black" fill-opacity="0.07"/>
<path fill-rule="evenodd" clip-rule="evenodd" d="M37.5589 2.01306C38.7183 2.01306 39.667 2.96171 39.667 4.12116V23.094C39.667 24.2535 38.7183 25.2021 37.5589 25.2021H3.82929C2.66984 25.2021 1.72119 24.2535 1.72119 23.094V4.12116C1.72119 2.96171 2.66984 2.01306 3.82929 2.01306H37.5589Z" fill="#3D95CE"/>
<path d="M26.6759 9.77094C26.6759 13.0005 23.9807 17.1967 21.7925 20.1428H16.7963L14.7915 7.88419L19.1669 7.46046L20.2262 16.1827C21.217 14.5321 22.4386 11.9402 22.4386 10.1725C22.4386 9.20492 22.2763 8.54613 22.0233 8.0033L26.0076 7.17798C26.4683 7.95587 26.6759 8.758 26.6759 9.77094Z" fill="white"/>
</g>
<defs>
<clipPath id="clip0_405_6587">
<rect width="40.0539" height="25.2972" fill="white" transform="translate(0.66748 0.959045)"/>
</clipPath>
</defs>
</svg>
