<svg width="200" height="174" viewBox="0 0 200 174" fill="none" xmlns="http://www.w3.org/2000/svg">
<path d="M170.058 44.6L170.058 42.4171L168.167 41.3257L101.656 2.92572L99.7661 1.83429L97.8756 2.92572L31.3649 41.3257L29.4745 42.4171L29.4745 44.6L29.4745 121.4L29.4745 123.583L31.3649 124.674L97.8756 163.074L99.766 164.166L101.656 163.074L168.167 124.674L170.058 123.583L170.058 121.4L170.058 44.6Z" fill="#009EFF" stroke="#F7F7F7" stroke-width="7.56163"/>
<path d="M90.4982 100.799V90.5293H96.9133V81.227H90.4982V51.1621H75.8777L56.1102 82.1944V90.5293H79.9058V100.799H90.4982ZM79.9058 81.227H66.4788L79.9058 60.5388V81.227Z" fill="white"/>
<path d="M121.879 101.692C136.051 101.692 142.467 88.8176 142.467 76.0177C142.467 63.2178 136.051 50.4179 121.879 50.4179C107.631 50.4179 101.29 63.2178 101.29 76.0177C101.29 88.8176 107.631 101.692 121.879 101.692ZM121.879 92.3153C114.717 92.3153 112.032 85.1712 112.032 76.0177C112.032 66.8643 114.717 59.7946 121.879 59.7946C128.965 59.7946 131.65 66.8643 131.65 76.0177C131.65 85.1712 128.965 92.3153 121.879 92.3153Z" fill="white"/>
<path d="M90.1662 118.295V109.818C90.1662 107.414 88.879 106.272 86.7174 106.272C84.9201 106.272 83.3657 107.341 82.6856 108.41C82.2484 107.074 81.1555 106.272 79.4311 106.272C77.6338 106.272 76.0794 107.39 75.5936 108.094V106.564H72.5091V118.295H75.5936V110.401C76.0551 109.745 76.9537 109.017 78.0224 109.017C79.2853 109.017 79.7711 109.794 79.7711 110.887V118.295H82.8799V110.377C83.3171 109.745 84.2157 109.017 85.3087 109.017C86.5716 109.017 87.0574 109.794 87.0574 110.887V118.295H90.1662ZM94.7217 105.301C95.7418 105.301 96.5676 104.475 96.5676 103.455C96.5676 102.435 95.7418 101.633 94.7217 101.633C93.7259 101.633 92.8758 102.435 92.8758 103.455C92.8758 104.475 93.7259 105.301 94.7217 105.301ZM96.2761 118.295V106.564H93.1916V118.295H96.2761ZM102.419 118.295V102.095H99.3346V118.295H102.419ZM110.991 118.586C112.813 118.586 114.658 118.028 115.824 116.959L114.464 114.967C113.711 115.696 112.327 116.133 111.331 116.133C109.339 116.133 108.149 114.894 107.955 113.413H116.674V112.733C116.674 108.895 114.294 106.272 110.797 106.272C107.226 106.272 104.725 109.017 104.725 112.417C104.725 116.182 107.421 118.586 110.991 118.586ZM113.687 111.324H107.907C108.052 110.158 108.878 108.725 110.797 108.725C112.837 108.725 113.614 110.207 113.687 111.324ZM123.128 118.586C126.383 118.586 128.205 116.959 128.205 114.822C128.205 110.085 121.258 111.543 121.258 109.794C121.258 109.138 121.987 108.628 123.104 108.628C124.537 108.628 125.873 109.235 126.577 109.988L127.816 107.875C126.65 106.952 125.071 106.272 123.08 106.272C119.995 106.272 118.271 107.997 118.271 109.964C118.271 114.579 125.241 113 125.241 114.943C125.241 115.672 124.61 116.206 123.274 116.206C121.817 116.206 120.068 115.405 119.218 114.603L117.882 116.765C119.121 117.906 121.088 118.586 123.128 118.586Z" fill="white"/>
</svg>
