<svg width="200" height="174" viewBox="0 0 200 174" fill="none" xmlns="http://www.w3.org/2000/svg">
<path d="M170.058 44.6L170.058 42.4171L168.167 41.3257L101.657 2.92572L99.7661 1.83429L97.8757 2.92572L31.365 41.3257L29.4745 42.4171L29.4746 44.6L29.4746 121.4L29.4746 123.583L31.365 124.674L97.8757 163.074L99.7661 164.166L101.657 163.074L168.167 124.674L170.058 123.583L170.058 121.4L170.058 44.6Z" fill="#009EFF" stroke="#F7F7F7" stroke-width="7.56163"/>
<path d="M138.845 55.0331C138.722 54.1733 138.124 53.4567 137.3 53.1815C136.481 52.9039 135.569 53.1209 134.954 53.7345L131.711 56.9789C129.978 58.7119 126.958 58.7119 125.225 56.9789C123.432 55.1856 123.432 52.2867 125.225 50.4946L128.467 47.2525C129.081 46.639 129.295 45.73 129.02 44.9059C128.745 44.0819 128.028 43.4841 127.168 43.3611C122.89 42.7565 118.559 44.194 115.498 47.2502C112.037 50.714 110.671 55.8056 111.936 60.5411L78.0363 94.4392L78.034 94.4369C73.3164 93.1854 68.1957 94.5511 64.7453 98.0014C61.7046 101.042 60.2493 105.406 60.8538 109.673C60.977 110.533 61.5748 111.25 62.3987 111.525C63.216 111.8 64.1295 111.586 64.7453 110.972L67.9875 107.728C69.7205 105.995 72.741 105.995 74.4741 107.728C76.2673 109.521 76.2664 112.42 74.4741 114.212L71.2319 117.454C70.6184 118.068 70.4035 118.977 70.6789 119.801C70.9543 120.625 71.6708 121.222 72.5306 121.345C76.7982 121.953 81.0924 120.561 84.2006 117.456C87.6621 113.993 89.0279 108.901 87.7629 104.165L121.663 70.2673L121.665 70.2696C126.407 71.5257 131.503 70.1554 134.954 66.7051C137.994 63.6644 139.45 59.3007 138.845 55.0331Z" fill="white"/>
<path d="M125.223 93.9711C124.137 93.9711 123.02 94.1344 121.707 94.4816L112.821 85.5962L103.091 95.3246L111.977 104.21C111.629 105.524 111.466 106.642 111.466 107.728C111.466 115.314 117.637 121.484 125.223 121.484C132.809 121.484 138.979 115.314 138.979 107.728C138.979 100.142 132.809 93.9711 125.223 93.9711ZM132.746 107.269L131.382 112.356C131.17 113.146 130.552 113.764 129.761 113.977L124.674 115.34C123.927 115.546 123.064 115.351 122.46 114.747L118.736 111.023C118.157 110.444 117.93 109.599 118.143 108.809L119.507 103.722C119.719 102.932 120.337 102.314 121.128 102.101L126.215 100.737C127.001 100.518 127.847 100.751 128.429 101.331L132.153 105.054C132.733 105.634 132.959 106.478 132.746 107.269Z" fill="white"/>
<path d="M87.7597 60.4112C89.0247 55.6757 87.6588 50.5819 84.1973 47.1203C79.0005 41.9258 69.9345 41.9258 64.7422 47.1203C59.3797 52.4851 59.3797 61.2127 64.7422 66.5752C68.1881 70.0211 73.291 71.407 78.0332 70.1376L86.8803 79.1111L96.6082 69.3845L87.7597 60.4112ZM81.7634 56.1593L80.3998 61.2463C80.1871 62.0367 79.5691 62.6547 78.7788 62.8673L73.6917 64.2309C72.9444 64.437 72.081 64.2413 71.4774 63.6376L67.7539 59.9141C67.174 59.3342 66.9479 58.4901 67.1605 57.6997L68.5241 52.6127C68.7369 51.8223 69.3549 51.2043 70.1451 50.9917L75.2322 49.6281C76.0226 49.4132 76.8666 49.6416 77.4466 50.2215L81.17 53.945C81.75 54.5249 81.976 55.3689 81.7634 56.1593Z" fill="white"/>
</svg>
