<svg width="44" height="30" viewBox="0 0 44 30" fill="none" xmlns="http://www.w3.org/2000/svg">
<g id="Frame" clip-path="url(#clip0_307_10459)">
<g id="Group">
<g id="Group_2">
<path id="Vector" d="M14.7573 10.9723H16.074C16.074 7.70516 18.732 5.04717 21.9992 5.04717V3.73047C18.0062 3.73047 14.7573 6.97936 14.7573 10.9723Z" fill="#CCCCCC"/>
</g>
</g>
<g id="Group_3">
<g id="Group_4">
<path id="Vector_2" d="M33.4112 22.1642H32.7529V10.9716C32.7529 5.0429 27.9287 0.21875 21.9994 0.21875C16.07 0.21875 11.2459 5.0429 11.2459 10.9716V22.1635H10.5875C9.25677 22.1635 8.17334 23.2462 8.17334 24.5777V29.6253H35.8247V24.5777C35.8247 23.2469 34.742 22.1642 33.4112 22.1642ZM12.5626 10.9716C12.5626 5.768 16.7958 1.53545 21.9994 1.53545C27.2029 1.53545 31.4362 5.7687 31.4362 10.9716V22.1635H12.5626V10.9716ZM34.508 25.2367H27.8803V26.5534H34.508V28.3093H9.49074V26.5534H16.5569V25.2367H9.49074V24.5784C9.49074 23.9734 9.98257 23.4809 10.5882 23.4809H33.4112C34.0162 23.4809 34.5087 23.9727 34.5087 24.5784V25.2367H34.508Z" fill="#CCCCCC"/>
</g>
</g>
<g id="Group_5">
<g id="Group_6">
<path id="Vector_3" d="M39.4564 4.1123L38.5254 5.04327C43.4022 9.92082 43.4022 17.8561 38.5254 22.7337L39.4564 23.6647C44.8468 18.2735 44.8468 9.50276 39.4564 4.1123Z" fill="#CCCCCC"/>
</g>
</g>
<g id="Group_7">
<g id="Group_8">
<path id="Vector_4" d="M36.8704 6.69824L35.9395 7.62921C39.3907 11.0804 39.3907 16.6957 35.9395 20.147L36.8704 21.0779C40.8346 17.1138 40.8346 10.6631 36.8704 6.69824Z" fill="#CCCCCC"/>
</g>
</g>
<g id="Group_9">
<g id="Group_10">
<path id="Vector_5" d="M5.47307 5.04299L4.54211 4.11133C-0.848347 9.50178 -0.848347 18.2732 4.54211 23.6637L5.47307 22.7327C0.596228 17.8559 0.596228 9.91984 5.47307 5.04299Z" fill="#CCCCCC"/>
</g>
</g>
<g id="Group_11">
<g id="Group_12">
<path id="Vector_6" d="M8.05935 7.62991L7.12839 6.69824C3.16424 10.6624 3.16424 17.1138 7.12839 21.0779L8.05935 20.147C4.60811 16.6964 4.60811 11.0804 8.05935 7.62991Z" fill="#CCCCCC"/>
</g>
</g>
<g id="Group_13">
<g id="Group_14">
<path id="Vector_7" d="M23.9743 20.2519V17.1337C24.7732 16.5323 25.291 15.5767 25.291 14.5017C25.291 12.6869 23.8141 11.21 21.9992 11.21C20.1844 11.21 18.7075 12.6869 18.7075 14.5017C18.7075 15.576 19.2253 16.5323 20.0242 17.1337V20.2519H18.4883V21.5686H25.5109V20.2519H23.9743ZM22.6576 20.2519H21.3409V17.7281C21.5538 17.7717 21.7737 17.7942 21.9992 17.7942C22.2248 17.7942 22.4447 17.771 22.6576 17.7281V20.2519ZM21.9992 16.4775C20.9102 16.4775 20.0242 15.5915 20.0242 14.5024C20.0242 13.4134 20.9102 12.5274 21.9992 12.5274C23.0883 12.5274 23.9743 13.4134 23.9743 14.5024C23.9743 15.5915 23.0883 16.4775 21.9992 16.4775Z" fill="#CCCCCC"/>
</g>
</g>
<g id="Group_15">
<g id="Group_16">
<path id="Vector_8" d="M19.805 25.2373H18.4883V26.554H19.805V25.2373Z" fill="#CCCCCC"/>
</g>
</g>
<g id="Group_17">
<g id="Group_18">
<path id="Vector_9" d="M25.9495 25.2373H24.6328V26.554H25.9495V25.2373Z" fill="#CCCCCC"/>
</g>
</g>
<g id="Group_19">
<g id="Group_20">
<path id="Vector_10" d="M22.8772 25.2373H21.5605V26.554H22.8772V25.2373Z" fill="#CCCCCC"/>
</g>
</g>
</g>
<defs>
<clipPath id="clip0_307_10459">
<rect width="43" height="29.4065" fill="white" transform="translate(0.499512 0.21875)"/>
</clipPath>
</defs>
</svg>
