<svg width="37" height="34" viewBox="0 0 37 34" fill="none" xmlns="http://www.w3.org/2000/svg">
<path id="Vector" d="M26.3513 26.2631C26.6645 25.9288 26.6645 25.39 26.3513 25.0682C26.0272 24.7339 25.5048 24.7339 25.1923 25.0682L19.3174 31.1171V11.1287C19.3174 10.6628 18.9583 10.2799 18.506 10.2799C18.0544 10.2799 17.6832 10.6622 17.6832 11.1287V31.1159L11.8198 25.0669C11.4958 24.7327 10.9855 24.7327 10.6614 25.0669C10.3482 25.39 10.3482 25.9276 10.6614 26.2625L17.9274 33.7577C18.2406 34.0808 18.7618 34.0808 19.0859 33.7577L26.3513 26.2631ZM16.0266 20.2498C16.4667 20.2498 16.838 20.6202 16.838 21.0867C16.838 21.5526 16.4674 21.9355 16.0266 21.9355H8.20435C5.94438 21.9355 3.89359 20.9913 2.41052 19.4496C0.915357 17.9191 0 15.8037 0 13.4724C0 11.1411 0.915357 9.02505 2.40992 7.49582C3.89359 5.96535 5.94438 5.00927 8.20435 5.00927C8.74909 5.00927 9.29383 5.06852 9.82648 5.18826C10.1282 5.24751 10.4172 5.31986 10.6953 5.4159C11.5641 3.87358 12.8047 2.58259 14.2763 1.63837C15.8984 0.598094 17.8108 0 19.8615 0C22.6657 0 25.2273 1.13569 27.1276 2.97613C28.8428 4.63757 30.0127 6.86156 30.3724 9.3718C30.5459 9.34748 30.7316 9.34748 30.9057 9.34748C32.5859 9.34748 34.1161 10.0522 35.2158 11.1879C36.3283 12.3236 37 13.9015 37 15.6353C37 17.3803 36.3277 18.9469 35.2158 20.0938C34.1149 21.2295 32.5852 21.9343 30.9057 21.9343H20.9861C20.5345 21.9343 20.1747 21.552 20.1747 21.0855C20.1747 20.619 20.5339 20.2485 20.9861 20.2485H30.9057C32.1336 20.2485 33.2582 19.734 34.0574 18.8977C34.8688 18.0607 35.367 16.9132 35.367 15.634C35.367 14.3674 34.8682 13.2073 34.0574 12.3829C33.2582 11.5459 32.1336 11.032 30.9057 11.032C30.7201 11.032 30.5351 11.0438 30.3724 11.0682C30.1989 11.08 30.0248 11.1156 29.8736 11.1517C29.8162 11.1636 29.7576 11.1761 29.7001 11.1879C29.2479 11.2122 28.8658 10.8536 28.8313 10.3871C28.6923 7.96045 27.6378 5.77264 26.0151 4.20724C24.4045 2.64122 22.2376 1.68514 19.8615 1.68514C18.1233 1.68514 16.5012 2.19966 15.1336 3.07155C13.7086 3.96775 12.5611 5.27121 11.8083 6.82538C11.6112 7.22016 11.159 7.39915 10.7539 7.23201C10.3597 7.05302 9.94256 6.9208 9.51451 6.82538C9.09734 6.74181 8.66808 6.69379 8.20496 6.69379C6.38573 6.69379 4.75151 7.45902 3.55804 8.67829C2.37606 9.9094 1.63422 11.607 1.63422 13.4718C1.63422 15.3484 2.37606 17.0341 3.55804 18.2653C4.75151 19.4845 6.38573 20.2498 8.20496 20.2498H16.0266Z" fill="#CCCCCC"/>
</svg>
