<svg width="146" height="42" viewBox="0 0 146 42" fill="none" xmlns="http://www.w3.org/2000/svg">
<g id="AppStore" clip-path="url(#clip0_307_10427)">
<g id="Group">
<path id="Vector" d="M140.809 42H5.11541C2.29274 42 0 39.7635 0 37.0335V4.9665C0 2.226 2.29274 0 5.11541 0H140.809C143.632 0 146 2.226 146 4.9665V37.0335C146 39.7635 143.621 42 140.809 42Z" fill="#A6A6A6"/>
<path id="Vector_2" d="M144.951 37.0336C144.951 39.2596 143.101 41.0551 140.809 41.0551H5.11529C2.82255 41.0551 0.962402 39.2596 0.962402 37.0336V4.96657C0.962402 2.74057 2.82255 0.93457 5.11529 0.93457H140.809C143.101 0.93457 144.951 2.74057 144.951 4.96657V37.0336Z" fill="black"/>
<g id="Group_2">
<g id="Group_3">
<path id="Vector_3" d="M32.5853 20.7695C32.5529 17.3885 35.4404 15.74 35.5702 15.6665C33.9372 13.3565 31.4065 13.0415 30.5089 13.01C28.3784 12.7895 26.3127 14.249 25.2313 14.249C24.1282 14.249 22.4627 13.031 20.6566 13.073C18.3422 13.1045 16.1793 14.4065 14.9896 16.433C12.5347 20.549 14.3624 26.6075 16.7092 29.936C17.888 31.5635 19.2615 33.3905 21.0567 33.3275C22.8087 33.254 23.4684 32.2355 25.5882 32.2355C27.6862 32.2355 28.3027 33.3275 30.1412 33.2855C32.023 33.254 33.2126 31.6475 34.3482 29.999C35.7 28.13 36.2516 26.2925 36.2732 26.198C36.2407 26.1665 32.6178 24.833 32.5853 20.7695Z" fill="white"/>
<path id="Vector_4" d="M29.1245 10.8258C30.0654 9.68125 30.7143 8.11675 30.5413 6.53125C29.1786 6.59425 27.459 7.45525 26.4749 8.56825C25.5989 9.55525 24.8202 11.1828 25.0257 12.7053C26.5614 12.8208 28.1404 11.9493 29.1245 10.8258Z" fill="white"/>
</g>
</g>
<g id="Group_4">
<path id="Vector_5" d="M58.021 33.0761H55.5661L54.225 28.9706H49.553L48.2661 33.0761H45.876L50.5047 19.1006H53.3706L58.021 33.0761ZM53.8032 27.2591L52.592 23.6156C52.4622 23.2376 52.2243 22.3661 51.8674 20.9801H51.8241C51.6835 21.5786 51.4564 22.4501 51.1428 23.6156L49.9532 27.2591H53.8032Z" fill="white"/>
<path id="Vector_6" d="M69.928 27.9199C69.928 29.6314 69.4521 30.9859 68.5004 31.9834C67.646 32.8654 66.5862 33.3064 65.3208 33.3064C63.9582 33.3064 62.974 32.8339 62.3684 31.8784H62.3251V37.1809H60.0216V26.3239C60.0216 25.2424 59.9891 24.1399 59.9351 23.0059H61.9682L62.098 24.6019H62.1413C62.9091 23.3944 64.0771 22.7959 65.6453 22.7959C66.8674 22.7959 67.8948 23.2684 68.7059 24.2029C69.517 25.1479 69.928 26.3869 69.928 27.9199ZM67.5811 28.0039C67.5811 27.0274 67.354 26.2189 66.8998 25.5784C66.4023 24.9169 65.7318 24.5809 64.8882 24.5809C64.3151 24.5809 63.8068 24.7699 63.3417 25.1269C62.8767 25.4944 62.5739 25.9774 62.4333 26.5654C62.3576 26.8384 62.3251 27.0694 62.3251 27.2479V28.9279C62.3251 29.6629 62.5522 30.2824 63.0173 30.7864C63.4823 31.2904 64.0771 31.5424 64.8234 31.5424C65.6885 31.5424 66.3699 31.2169 66.8565 30.5659C67.3432 29.9254 67.5811 29.0644 67.5811 28.0039Z" fill="white"/>
<path id="Vector_7" d="M81.8678 27.9199C81.8678 29.6314 81.3919 30.9859 80.4402 31.9834C79.5859 32.8654 78.526 33.3064 77.2607 33.3064C75.898 33.3064 74.9139 32.8339 74.3191 31.8784H74.2758V37.1809H71.9723V26.3239C71.9723 25.2424 71.9398 24.1399 71.8857 23.0059H73.9189L74.0487 24.6019H74.092C74.8598 23.3944 76.0278 22.7959 77.596 22.7959C78.818 22.7959 79.8454 23.2684 80.6565 24.2029C81.4568 25.1479 81.8678 26.3869 81.8678 27.9199ZM79.521 28.0039C79.521 27.0274 79.2939 26.2189 78.8397 25.5784C78.3422 24.9169 77.6717 24.5809 76.8281 24.5809C76.2549 24.5809 75.7466 24.7699 75.2816 25.1269C74.8166 25.4944 74.5137 25.9774 74.3731 26.5654C74.2974 26.8384 74.265 27.0694 74.265 27.2479V28.9279C74.265 29.6629 74.4921 30.2824 74.9571 30.7864C75.4222 31.2904 76.017 31.5424 76.7632 31.5424C77.6284 31.5424 78.3097 31.2169 78.7964 30.5659C79.2723 29.9254 79.521 29.0644 79.521 28.0039Z" fill="white"/>
<path id="Vector_8" d="M95.2132 29.1589C95.2132 30.3454 94.7914 31.3114 93.9371 32.0569C92.9962 32.8759 91.6984 33.2854 90.0221 33.2854C88.4756 33.2854 87.2319 32.9914 86.291 32.4139L86.8209 30.5449C87.8375 31.1434 88.9406 31.4374 90.1519 31.4374C91.0171 31.4374 91.6984 31.2484 92.1851 30.8704C92.6717 30.4924 92.9097 29.9779 92.9097 29.3479C92.9097 28.7809 92.715 28.2979 92.3149 27.9199C91.9147 27.5314 91.255 27.1744 90.3249 26.8384C87.8051 25.9249 86.5506 24.5914 86.5506 22.8274C86.5506 21.6829 86.994 20.7379 87.87 20.0029C88.746 19.2679 89.9248 18.9004 91.3956 18.9004C92.7042 18.9004 93.7965 19.1209 94.6617 19.5619L94.0885 21.3889C93.2774 20.9584 92.3581 20.7484 91.3307 20.7484C90.5196 20.7484 89.8815 20.9374 89.4273 21.3259C89.0488 21.6724 88.8541 22.0924 88.8541 22.5964C88.8541 23.1529 89.0704 23.6044 89.5138 23.9614C89.9032 24.2974 90.5953 24.6544 91.6119 25.0429C92.8556 25.5259 93.764 26.0929 94.348 26.7439C94.9212 27.3844 95.2132 28.1929 95.2132 29.1589Z" fill="white"/>
<path id="Vector_9" d="M102.837 24.6856H100.296V29.5786C100.296 30.8176 100.739 31.4476 101.637 31.4476C102.048 31.4476 102.394 31.4161 102.664 31.3426L102.729 33.0436C102.275 33.2116 101.68 33.2956 100.934 33.2956C100.025 33.2956 99.3117 33.0226 98.8034 32.4871C98.2951 31.9516 98.0356 31.0381 98.0356 29.7676V24.6856H96.5215V23.0056H98.0356V21.1576L100.296 20.4961V23.0056H102.837V24.6856Z" fill="white"/>
<path id="Vector_10" d="M114.301 27.9621C114.301 29.5056 113.847 30.7866 112.939 31.7736C111.987 32.7921 110.711 33.3066 109.132 33.3066C107.607 33.3066 106.396 32.8131 105.487 31.8366C104.579 30.8601 104.135 29.6211 104.135 28.1301C104.135 26.5656 104.6 25.2951 105.53 24.2976C106.46 23.3001 107.715 22.8066 109.294 22.8066C110.819 22.8066 112.041 23.3001 112.971 24.2766C113.858 25.2216 114.301 26.4501 114.301 27.9621ZM111.911 28.0356C111.911 27.1116 111.706 26.3136 111.295 25.6416C110.808 24.8331 110.116 24.4341 109.229 24.4341C108.299 24.4341 107.596 24.8331 107.109 25.6416C106.698 26.3031 106.493 27.1221 106.493 28.0776C106.493 29.0016 106.698 29.7996 107.109 30.4716C107.607 31.2801 108.299 31.6791 109.207 31.6791C110.083 31.6791 110.776 31.2696 111.273 30.4506C111.695 29.7681 111.911 28.9596 111.911 28.0356Z" fill="white"/>
<path id="Vector_11" d="M121.796 24.9696C121.569 24.9276 121.32 24.9066 121.071 24.9066C120.26 24.9066 119.633 25.2006 119.19 25.7991C118.8 26.3241 118.616 26.9856 118.616 27.7836V33.0756H116.313L116.335 26.1771C116.335 25.0116 116.302 23.9616 116.248 23.0061H118.26L118.346 24.9381H118.411C118.66 24.2766 119.038 23.7411 119.568 23.3421C120.076 22.9851 120.639 22.8066 121.234 22.8066C121.45 22.8066 121.645 22.8171 121.807 22.8486V24.9696H121.796Z" fill="white"/>
<path id="Vector_12" d="M132.113 27.5636C132.113 27.9626 132.081 28.2986 132.027 28.5821H125.105C125.138 29.5796 125.462 30.3356 126.111 30.8606C126.695 31.3331 127.452 31.5641 128.371 31.5641C129.399 31.5641 130.329 31.4066 131.172 31.0916L131.529 32.6456C130.545 33.0656 129.388 33.2651 128.047 33.2651C126.436 33.2651 125.17 32.8031 124.251 31.8896C123.332 30.9656 122.877 29.7371 122.877 28.1936C122.877 26.6711 123.31 25.4111 124.164 24.4031C125.062 23.3216 126.273 22.7861 127.787 22.7861C129.28 22.7861 130.415 23.3216 131.183 24.4031C131.8 25.2536 132.113 26.3036 132.113 27.5636ZM129.907 26.9861C129.918 26.3246 129.777 25.7471 129.464 25.2641C129.064 24.6446 128.447 24.3296 127.625 24.3296C126.868 24.3296 126.262 24.6341 125.787 25.2431C125.408 25.7261 125.17 26.3036 125.105 26.9861H129.907Z" fill="white"/>
</g>
<g id="Group_5">
<g id="Group_6">
<path id="Vector_13" d="M46.9578 7.63388C47.2066 7.48688 47.477 7.37138 47.7906 7.27688C48.1042 7.18238 48.4611 7.12988 48.8829 7.12988C49.5642 7.12988 50.0941 7.28738 50.4835 7.60238C50.8728 7.91738 51.0675 8.33738 51.0675 8.86238C51.0675 9.28238 50.9377 9.63938 50.6781 9.92288C50.4186 10.2064 50.0833 10.3954 49.6724 10.4899V10.5214C49.8995 10.5529 50.1049 10.6159 50.3104 10.6999C50.5051 10.7839 50.6889 10.8994 50.8295 11.0464C50.9809 11.1934 51.0999 11.3509 51.1864 11.5504C51.2729 11.7394 51.3162 11.9494 51.3162 12.1804C51.3162 12.5584 51.2405 12.8839 51.0783 13.1359C50.9161 13.3984 50.7106 13.6084 50.4618 13.7659C50.2023 13.9339 49.9211 14.0494 49.6075 14.1124C49.2938 14.1859 48.9802 14.2174 48.6666 14.2174C48.3313 14.2174 47.9961 14.1859 47.6716 14.1124C47.3472 14.0494 47.0444 13.9339 46.7632 13.7764L47.0444 12.9259C47.2282 13.0099 47.4661 13.1044 47.7473 13.1779C48.0285 13.2619 48.3205 13.3039 48.6125 13.3039C49.0992 13.3039 49.4669 13.1989 49.7264 12.9889C49.986 12.7789 50.1158 12.4954 50.1158 12.1384C50.1158 11.8969 50.0617 11.7079 49.9535 11.5504C49.8454 11.3929 49.7156 11.2774 49.5426 11.1829C49.3804 11.0989 49.1857 11.0359 48.9802 11.0044C48.7747 10.9729 48.5692 10.9519 48.3638 10.9519H47.8879V10.1119H48.3638C48.5801 10.1119 48.7855 10.0909 48.9694 10.0279C49.1532 9.97538 49.3155 9.90188 49.4561 9.79688C49.5967 9.70238 49.7048 9.57638 49.7805 9.43988C49.8562 9.30338 49.8995 9.15638 49.8995 8.97788C49.8995 8.67338 49.7913 8.43188 49.5642 8.26388C49.3371 8.09588 49.0343 8.00138 48.6666 8.00138C48.407 8.00138 48.1475 8.04338 47.8879 8.12738C47.6284 8.21138 47.4013 8.29538 47.1958 8.38988L46.9578 7.63388Z" fill="white"/>
<path id="Vector_14" d="M55.9667 14.1013L55.8801 13.5343H55.8477C55.5016 13.9858 55.015 14.2168 54.3553 14.2168C54.1281 14.2168 53.9118 14.1748 53.728 14.1013C53.5441 14.0278 53.3711 13.9228 53.2305 13.7968C53.0899 13.6708 52.9818 13.5133 52.9061 13.3348C52.8304 13.1563 52.7871 12.9673 52.7871 12.7573C52.7871 12.1378 53.0467 11.6758 53.5658 11.3713C54.0849 11.0668 54.8203 10.9093 55.772 10.9093V10.8148C55.772 10.1638 55.4151 9.83828 54.7121 9.83828C54.2147 9.83828 53.7604 9.96428 53.3819 10.2058L53.1548 9.48128C53.6198 9.19778 54.2038 9.05078 54.9068 9.05078C56.237 9.05078 56.9075 9.73328 56.9075 11.0983V12.9253C56.9075 13.4293 56.9292 13.8283 56.9832 14.1013H55.9667ZM55.8153 11.6443C55.1772 11.6443 54.7121 11.7178 54.3985 11.8753C54.0849 12.0328 53.9335 12.2848 53.9335 12.6418C53.9335 12.9043 54.0092 13.0933 54.1498 13.2193C54.2904 13.3453 54.485 13.4083 54.7013 13.4083C54.8527 13.4083 54.9825 13.3873 55.1231 13.3348C55.2529 13.2823 55.3718 13.2088 55.4692 13.1248C55.5665 13.0408 55.653 12.9253 55.7179 12.7993C55.7828 12.6733 55.8153 12.5368 55.8153 12.4003V11.6443Z" fill="white"/>
<path id="Vector_15" d="M62.3798 9.15625V10.0592H60.2601V14.1017H59.1245V9.15625H62.3798Z" fill="white"/>
<path id="Vector_16" d="M68.869 11.571C68.869 11.97 68.8149 12.327 68.6959 12.6525C68.5878 12.978 68.4256 13.2615 68.2309 13.482C68.0362 13.713 67.7983 13.8915 67.5171 14.0175C67.2359 14.1435 66.9331 14.217 66.5979 14.217C65.9274 14.217 65.4407 13.986 65.1487 13.5135H65.1271V16.1175H63.9915V10.7835C63.9915 10.521 63.9915 10.248 63.9807 9.98552C63.9699 9.72302 63.9591 9.43952 63.9482 9.15602H64.9432L65.0081 9.94352H65.0297C65.4082 9.35552 65.9814 9.06152 66.7493 9.06152C67.0521 9.06152 67.3333 9.12452 67.582 9.24002C67.8416 9.36602 68.0579 9.53402 68.2525 9.75452C68.4364 9.97502 68.5878 10.2375 68.6959 10.5525C68.8149 10.857 68.869 11.193 68.869 11.571ZM67.7118 11.613C67.7118 11.3715 67.6793 11.1405 67.6253 10.941C67.5712 10.731 67.4739 10.5525 67.3657 10.416C67.2468 10.269 67.1062 10.1535 66.9439 10.0695C66.7817 9.98552 66.5979 9.94352 66.3924 9.94352C66.2302 9.94352 66.0788 9.97502 65.9165 10.0485C65.7651 10.1115 65.6245 10.206 65.5164 10.3215C65.3974 10.437 65.3109 10.5735 65.2352 10.7415C65.1703 10.9095 65.1271 11.0775 65.1271 11.2665V12.096C65.1271 12.2745 65.1595 12.453 65.2136 12.6C65.2676 12.7575 65.3542 12.894 65.4623 13.0095C65.5705 13.125 65.7002 13.2195 65.8516 13.2825C66.0031 13.3455 66.1653 13.377 66.3491 13.377C66.7817 13.377 67.1062 13.2195 67.3441 12.9045C67.5928 12.558 67.7118 12.138 67.7118 11.613Z" fill="white"/>
<path id="Vector_17" d="M74.9464 9.15625L73.6595 12.5897C73.3566 13.4087 73.0538 14.0702 72.7618 14.5952C72.4698 15.1202 72.1886 15.4877 71.9291 15.7292C71.5397 16.0652 71.118 16.2752 70.6746 16.3487L70.4042 15.4247C70.6962 15.3512 70.9774 15.2042 71.2477 14.9837C71.5181 14.7632 71.7236 14.5007 71.8858 14.1647C71.9399 14.0597 71.9723 13.9862 71.9723 13.9442C71.9723 13.9022 71.9507 13.8287 71.9074 13.7132L70.0581 9.15625H71.3018L72.2643 11.9177C72.3184 12.0437 72.3617 12.1907 72.4157 12.3587C72.4698 12.5162 72.5131 12.7052 72.578 12.8942H72.5996C72.632 12.7892 72.6753 12.6527 72.7186 12.4847C72.7618 12.3167 72.8159 12.1277 72.8916 11.9072L73.7568 9.15625H74.9464Z" fill="white"/>
<path id="Vector_18" d="M76.9149 11.214H77.434C77.8125 11.214 78.1153 11.151 78.3208 11.0145C78.5263 10.878 78.6344 10.71 78.6344 10.5105C78.6344 10.311 78.5479 10.143 78.364 10.0275C78.191 9.90152 77.9423 9.84902 77.6286 9.84902C77.4232 9.84902 77.2177 9.88052 77.0122 9.94352C76.8067 10.0065 76.6121 10.0905 76.439 10.185L76.147 9.47102C76.439 9.31352 76.731 9.20852 77.023 9.14552C77.315 9.08252 77.607 9.06152 77.899 9.06152C78.1261 9.06152 78.364 9.08252 78.602 9.12452C78.8291 9.16652 79.0454 9.24002 79.2292 9.34502C79.4131 9.45002 79.5645 9.58652 79.6726 9.75452C79.7916 9.92252 79.8457 10.1325 79.8457 10.3845C79.8457 10.542 79.8132 10.6785 79.7483 10.794C79.6834 10.9095 79.6077 11.0145 79.4996 11.109C79.3914 11.2035 79.2725 11.277 79.1535 11.3295C79.0237 11.3925 78.894 11.4345 78.7642 11.4555V11.487C78.9264 11.508 79.0886 11.55 79.2508 11.613C79.4131 11.676 79.5537 11.7495 79.6726 11.8545C79.8024 11.949 79.8997 12.075 79.9754 12.2115C80.0511 12.348 80.0836 12.5055 80.0836 12.684C80.0836 12.978 80.0079 13.2195 79.8673 13.419C79.7267 13.6185 79.532 13.776 79.3049 13.8915C79.0778 14.007 78.8291 14.091 78.5587 14.1435C78.2883 14.196 78.018 14.217 77.7584 14.217C77.4448 14.217 77.1312 14.1855 76.8283 14.1225C76.5147 14.0595 76.2443 13.9545 75.9956 13.818L76.2876 13.0935C76.4715 13.188 76.6769 13.272 76.9149 13.335C77.1528 13.398 77.3907 13.4295 77.6286 13.4295C78.018 13.4295 78.31 13.356 78.5154 13.209C78.7209 13.062 78.8291 12.8835 78.8291 12.663C78.8291 12.516 78.7966 12.4005 78.7209 12.306C78.6452 12.2115 78.5479 12.1275 78.4289 12.0645C78.2991 12.0015 78.1586 11.9595 77.9855 11.9385C77.8233 11.9175 77.6395 11.907 77.4448 11.907H76.9149V11.214Z" fill="white"/>
<path id="Vector_19" d="M82.9604 9.15625V10.9097C82.9604 11.3087 82.9496 11.6657 82.9388 11.9912C82.9279 12.3062 82.9063 12.6422 82.8847 12.9992L82.9063 13.0202C83.0361 12.7577 83.1659 12.5057 83.2956 12.2642C83.4254 12.0122 83.5552 11.7602 83.6958 11.5082L84.9503 9.16675H86.4211V14.1122H85.3505V12.3587C85.3505 11.9912 85.3613 11.6237 85.3829 11.2562C85.4045 10.8887 85.4154 10.5212 85.437 10.1432H85.3829C85.2639 10.4477 85.145 10.7102 85.026 10.9412C84.9071 11.1617 84.7881 11.3927 84.6691 11.6342C84.4528 12.0437 84.2365 12.4532 84.0202 12.8522C83.804 13.2617 83.5768 13.6817 83.3497 14.1017H81.8789V9.15625H82.9604Z" fill="white"/>
<path id="Vector_20" d="M92.4121 9.15625V10.0592H90.8548V14.1017H89.7409V10.0592H88.1943V9.15625H92.4121Z" fill="white"/>
<path id="Vector_21" d="M98.1873 11.3923C98.1873 11.4868 98.1873 11.5813 98.1764 11.6653C98.1656 11.7493 98.1548 11.8228 98.144 11.8963H94.7481C94.759 12.3688 94.9104 12.7258 95.2024 12.9778C95.4944 13.2298 95.8729 13.3558 96.3487 13.3558C96.8462 13.3558 97.3004 13.2823 97.7222 13.1248L97.8953 13.8913C97.4086 14.0908 96.8462 14.1958 96.1865 14.1958C95.7864 14.1958 95.4295 14.1328 95.1158 14.0173C94.8022 13.9018 94.5318 13.7338 94.3155 13.5133C94.0992 13.2928 93.937 13.0303 93.8181 12.7258C93.7099 12.4213 93.645 12.0748 93.645 11.6968C93.645 11.3188 93.6991 10.9618 93.8181 10.6468C93.937 10.3213 94.0992 10.0483 94.3047 9.80678C94.5102 9.56528 94.7698 9.38678 95.0618 9.25028C95.3538 9.11378 95.689 9.05078 96.0567 9.05078C96.3812 9.05078 96.6732 9.10328 96.9327 9.21878C97.1923 9.33428 97.4194 9.49178 97.6033 9.70178C97.7871 9.91178 97.9277 10.1533 98.025 10.4473C98.1332 10.7203 98.1873 11.0458 98.1873 11.3923ZM97.1058 11.1088C97.1058 10.7203 97.0084 10.4053 96.8138 10.1638C96.6191 9.92228 96.3379 9.79628 95.981 9.79628C95.6566 9.79628 95.3754 9.92228 95.1375 10.1638C94.9104 10.4053 94.7698 10.7203 94.7373 11.0983H97.1058V11.1088Z" fill="white"/>
<path id="Vector_22" d="M102.751 9.19851C102.957 9.16701 103.217 9.13551 103.53 9.11451C103.844 9.09351 104.168 9.08301 104.493 9.08301C104.698 9.08301 104.936 9.09351 105.196 9.11451C105.455 9.13551 105.715 9.18801 105.942 9.27201C106.18 9.35601 106.374 9.48201 106.537 9.65001C106.699 9.81801 106.785 10.049 106.785 10.343C106.785 10.49 106.753 10.6265 106.699 10.742C106.645 10.8575 106.569 10.9625 106.472 11.057C106.374 11.141 106.266 11.2145 106.147 11.2775C106.028 11.3405 105.899 11.3825 105.769 11.4035L105.78 11.435C106.147 11.498 106.45 11.624 106.677 11.8235C106.904 12.023 107.023 12.296 107.023 12.6425C107.023 12.989 106.926 13.262 106.731 13.472C106.537 13.6715 106.299 13.829 106.007 13.934C105.715 14.039 105.423 14.102 105.098 14.123C104.785 14.144 104.493 14.165 104.244 14.165C103.963 14.165 103.692 14.1545 103.422 14.144C103.152 14.1335 102.925 14.1125 102.751 14.102V9.19851ZM103.844 11.1725H104.417C104.59 11.1725 104.763 11.162 104.914 11.141C105.077 11.12 105.206 11.078 105.325 11.0255C105.444 10.973 105.542 10.91 105.607 10.826C105.671 10.742 105.704 10.637 105.704 10.511C105.704 10.2905 105.607 10.1225 105.412 10.0175C105.217 9.91251 104.914 9.86001 104.503 9.86001C104.385 9.86001 104.276 9.86001 104.19 9.87051C104.103 9.88101 103.984 9.89151 103.833 9.90201V11.1725H103.844ZM103.844 13.367C103.984 13.3775 104.103 13.388 104.19 13.3985C104.287 13.409 104.395 13.409 104.525 13.409C104.677 13.409 104.839 13.3985 105.001 13.3775C105.163 13.3565 105.315 13.3145 105.444 13.262C105.574 13.2095 105.682 13.1255 105.758 13.031C105.834 12.9365 105.877 12.8 105.877 12.6425C105.877 12.359 105.747 12.1595 105.488 12.0545C105.228 11.9495 104.882 11.897 104.439 11.897H103.844V13.367Z" fill="white"/>
</g>
</g>
</g>
</g>
<defs>
<clipPath id="clip0_307_10427">
<rect width="146" height="42" fill="white"/>
</clipPath>
</defs>
</svg>
