<svg width="40" height="40" viewBox="0 0 40 40" fill="none" xmlns="http://www.w3.org/2000/svg">
<g clip-path="url(#clip0_286_4556)">
<path d="M38.7493 3.64165L36.3288 1.23775C34.7508 -0.329439 32.0913 -0.420845 30.4 1.03462L26.1475 4.69634C26.0932 4.74322 26.046 4.79868 26.0091 4.85962L21.8683 11.7096L19.2095 12.5893C18.9845 12.6635 18.8154 12.8487 18.7603 13.0768C18.7052 13.3049 18.7744 13.5463 18.942 13.7127L26.1876 20.9081C26.3174 21.037 26.4913 21.1065 26.6706 21.1065C26.7233 21.1065 26.7752 21.1002 26.8271 21.0885C27.0576 21.0346 27.2433 20.8659 27.318 20.6424L28.2045 18.001L35.2024 13.8042C35.2637 13.7674 35.3196 13.7206 35.366 13.6666L38.9656 9.52368C40.4248 7.8479 40.3272 5.20884 38.7493 3.64165ZM37.9335 8.63853L34.4047 12.6995L27.2842 16.9698C27.1449 17.0534 27.0403 17.1831 26.9892 17.3362L26.3725 19.1729L24.7394 17.551L24.7387 17.5502L22.3237 15.1518L22.3229 15.151L20.6899 13.5292L22.5392 12.9167C22.6942 12.8651 22.8248 12.7612 22.909 12.6221L27.1237 5.65025L31.2952 2.05962C32.4555 1.0604 34.2804 1.12212 35.3628 2.19712L37.7833 4.60103C38.8665 5.67681 38.9333 7.48775 37.9335 8.63853Z" fill="#323941"/>
<path d="M36.8125 27.2595C34.8066 25.2681 31.8552 24.5751 29.1806 25.4368L14.6634 11.0189C15.5303 8.3626 14.8333 5.43057 12.8282 3.43916C10.7153 1.34073 7.55231 0.683694 4.76922 1.76729C4.55447 1.85088 4.39715 2.03604 4.34995 2.26026C4.30275 2.48448 4.37276 2.71651 4.53559 2.87901L8.88093 7.19463L5.98299 10.0728L1.63766 5.75635C1.47483 5.59463 1.24041 5.5251 1.01465 5.57198C0.788888 5.61885 0.602458 5.7751 0.518289 5.98838C-0.571977 8.75167 0.0887899 11.8931 2.20167 13.9923C4.20757 15.9837 7.159 16.6767 9.83353 15.8157L15.262 21.2071L8.50177 27.9212L4.20206 30.3087C4.0825 30.3751 3.98574 30.4759 3.92439 30.5978L1.99243 34.4353C1.86106 34.6962 1.91219 35.0118 2.12065 35.2181L4.53559 37.6165C4.66696 37.747 4.84159 37.815 5.01858 37.815C5.12242 37.815 5.22704 37.7915 5.3238 37.7431L9.18771 35.8243C9.31042 35.7634 9.4119 35.6673 9.47876 35.5486L11.8827 31.2782L18.643 24.565L24.3507 30.2337C23.4839 32.89 24.1808 35.8212 26.1867 37.8134C27.6231 39.24 29.5456 40.0001 31.5035 40.0001C32.4255 40.0001 33.3553 39.8314 34.2457 39.4853C34.4605 39.4017 34.6178 39.2165 34.665 38.9923C34.7122 38.7681 34.6422 38.5361 34.4794 38.3736L30.134 34.0579L33.032 31.1798L37.3773 35.4954C37.5401 35.6571 37.7745 35.7267 38.0003 35.6798C38.2261 35.6329 38.4125 35.4767 38.4967 35.2634C39.5861 32.4993 38.9254 29.3579 36.8125 27.2595ZM10.8499 30.3853C10.805 30.4298 10.7673 30.479 10.7366 30.5337L8.38928 34.704L5.15388 36.3111L3.4351 34.604L5.0532 31.3907L9.25221 29.0595C9.30728 29.029 9.35762 28.9915 9.40167 28.947L16.2288 22.1665L17.6778 23.6056L10.8499 30.3853ZM37.5307 33.729L33.515 29.7407C33.2483 29.4759 32.8156 29.4759 32.549 29.7407L28.6851 33.5782C28.5568 33.7056 28.4853 33.8782 28.4853 34.0579C28.4853 34.2376 28.5576 34.4103 28.6851 34.5376L32.7008 38.5259C30.7098 38.9189 28.6213 38.3118 27.1527 36.854C25.4237 35.1368 24.8833 32.5665 25.7753 30.3048C25.8744 30.054 25.8147 29.7681 25.6227 29.5775L10.4943 14.5524C10.3637 14.4228 10.1891 14.354 10.0113 14.354C9.92793 14.354 9.84297 14.3696 9.76195 14.4009C7.48545 15.2868 4.89666 14.7501 3.16765 13.0329C1.69902 11.5743 1.08781 9.5001 1.48427 7.52276L5.5 11.511C5.76667 11.7759 6.19931 11.7759 6.46598 11.511L10.3299 7.67354C10.5966 7.4087 10.5966 6.97901 10.3299 6.71417L6.31416 2.72588C8.30511 2.33213 10.3936 2.93994 11.8622 4.39776C13.5913 6.11495 14.1317 8.68526 13.2396 10.947C13.1405 11.1978 13.2003 11.4837 13.3922 11.6743L28.5207 26.6993C28.7126 26.89 29.0005 26.9493 29.253 26.8509C31.5303 25.965 34.1183 26.5017 35.8473 28.2189C37.3151 29.6775 37.9264 31.7517 37.5307 33.729Z" fill="#323941"/>
</g>
<defs>
<clipPath id="clip0_286_4556">
<rect width="40" height="40" fill="white"/>
</clipPath>
</defs>
</svg>
