<svg width="40" height="40" viewBox="0 0 40 40" fill="none" xmlns="http://www.w3.org/2000/svg">
<path d="M32.6663 10.6666C32.6663 9.53328 31.7997 8.66664 30.6663 8.66664H28.6663V2C28.6663 0.866641 27.7997 0 26.6663 0C25.5329 0 24.6663 0.866641 24.6663 2V8.66664H15.333V2C15.333 0.866641 14.4664 0 13.333 0C12.1997 0 11.333 0.866641 11.333 2V8.66664H9.33301C8.19965 8.66664 7.33301 9.53328 7.33301 10.6666C7.33301 11.5644 7.87699 12.2942 8.66637 12.5591V24.6666C8.66637 28 11.333 30.6666 14.6664 30.6666H16.6664V33.3333C16.6664 33.7333 16.933 33.9999 17.333 33.9999H17.9997V36.6666C17.9997 37.0666 18.2663 37.3332 18.6663 37.3332H19.3329V39.3332C19.3329 39.7332 19.5996 39.9998 19.9996 39.9998C20.3996 39.9998 20.6662 39.7332 20.6662 39.3332V37.3332H21.3329C21.7329 37.3332 21.9995 37.0666 21.9995 36.6666V34H22.6661C23.0661 34 23.3328 33.7334 23.3328 33.3334V30.6667H25.3328C28.6661 30.6667 31.3328 28.0001 31.3328 24.6667V12.5592C32.1223 12.2943 32.6663 11.5644 32.6663 10.6666ZM25.9997 2C25.9997 1.6 26.2663 1.33336 26.6663 1.33336C27.0663 1.33336 27.3329 1.6 27.3329 2V8.66664H25.9997V2ZM12.6663 2C12.6663 1.66664 12.9329 1.33336 13.3329 1.33336C13.7329 1.33336 13.9996 1.6 13.9996 2V8.66664H12.6662V2H12.6663ZM20.6663 36H19.3329V34H20.6663V36ZM21.9997 32.6666H21.333H18.6664H17.9997V30.6666H21.9997V32.6666ZM29.9997 24.6666C29.9997 27.2666 27.933 29.3333 25.333 29.3333H22.6664H17.333H14.6664C12.0664 29.3333 9.99973 27.2666 9.99973 24.6666V12.6666H29.9997V24.6666H29.9997ZM30.6663 11.3334H9.33301C8.93301 11.3334 8.66637 11.0667 8.66637 10.6667C8.66637 10.2667 8.93301 10.0001 9.33301 10.0001H11.9997H14.6663H25.3329H27.9997H30.6663C31.0663 10.0001 31.3329 10.2667 31.3329 10.6667C31.3329 11.0667 31.0663 11.3334 30.6663 11.3334Z" fill="#323941"/>
<path d="M17.3333 21.3335H21.0667L17.5333 24.8669C17.2667 25.1335 17.2667 25.5335 17.5333 25.8002C17.6667 25.9336 17.7999 26.0002 17.9999 26.0002C18.1999 26.0002 18.3333 25.9336 18.4666 25.8002L23.1332 21.1336C23.3332 20.9336 23.3999 20.6669 23.2666 20.4002C23.1999 20.1336 22.9332 20.0002 22.6666 20.0002H18.9332L22.4666 16.4669C22.7332 16.2002 22.7332 15.8002 22.4666 15.5335C22.1999 15.2668 21.7999 15.2669 21.5332 15.5335L16.8666 20.2001C16.6666 20.4001 16.6666 20.6668 16.7332 20.9335C16.7999 21.2002 17.0666 21.3335 17.3333 21.3335Z" fill="#323941"/>
</svg>
