<svg width="40" height="40" viewBox="0 0 40 40" fill="none" xmlns="http://www.w3.org/2000/svg">
<g clip-path="url(#clip0_392_18511)">
<path d="M34.1421 5.85782C30.3646 2.08032 25.3421 0 20 0C14.6579 0 9.63541 2.08032 5.85782 5.85782C2.08032 9.63532 0 14.6578 0 20C0 25.3422 2.08032 30.3646 5.85782 34.1422C9.63532 37.9197 14.6577 40 19.9999 40C25.3421 40 30.3645 37.9197 34.1421 34.1422C37.9196 30.3647 39.9999 25.3422 39.9999 20C39.9999 14.6578 37.9196 9.63532 34.1421 5.85782ZM20 38.4167C9.84493 38.4167 1.58327 30.155 1.58327 20C1.58327 9.84502 9.84493 1.58327 20 1.58327C30.1551 1.58327 38.4167 9.84502 38.4167 20C38.4166 30.155 30.155 38.4167 20 38.4167Z" fill="#323941"/>
<path d="M19.9999 5.00781C11.7333 5.00781 5.00781 11.7332 5.00781 19.9999C5.00781 28.2665 11.7332 34.9919 19.9999 34.9919C28.2665 34.9919 34.9919 28.2665 34.9919 19.9999C34.9919 11.7332 28.2664 5.00781 19.9999 5.00781ZM19.9999 33.4086C12.6063 33.4086 6.59108 27.3934 6.59108 19.9999C6.59108 12.6063 12.6062 6.59108 19.9999 6.59108C27.3935 6.59108 33.4086 12.6062 33.4086 19.9999C33.4086 27.3935 27.3934 33.4086 19.9999 33.4086Z" fill="#323941"/>
<path d="M22.7824 19.9996C22.7824 18.4651 21.5341 17.2168 19.9996 17.2168C18.4651 17.2168 17.2168 18.4651 17.2168 19.9996C17.2168 21.534 18.4651 22.7823 19.9996 22.7823C21.5341 22.7823 22.7824 21.534 22.7824 19.9996ZM18.8001 19.9996C18.8001 19.3381 19.3382 18.8001 19.9996 18.8001C20.661 18.8001 21.1992 19.3382 21.1992 19.9996C21.1992 20.661 20.661 21.1991 19.9996 21.1991C19.3382 21.1991 18.8001 20.6609 18.8001 19.9996Z" fill="#323941"/>
<path d="M20 7.73047C13.2345 7.73047 7.73047 13.2345 7.73047 20C7.73047 26.7655 13.2346 32.2695 20 32.2695C26.7655 32.2695 32.2696 26.7655 32.2696 20C32.2696 13.2345 26.7655 7.73047 20 7.73047ZM30.6863 20.0001C30.6863 21.1531 30.5019 22.2639 30.1625 23.3052L25.8335 20.4593C25.6099 20.3123 25.5858 20.0892 25.5858 20.0001C25.5858 19.911 25.6099 19.6877 25.8335 19.5408L30.1624 16.695C30.502 17.7362 30.6863 18.8469 30.6863 20.0001ZM27.9383 12.854L23.3141 15.1769C23.075 15.2971 22.8698 15.2063 22.7925 15.1618C22.7154 15.1172 22.5341 14.9847 22.5186 14.7176L22.2186 9.54604C24.4657 10.0224 26.454 11.2067 27.9383 12.854ZM17.7809 9.54612L17.4808 14.7184C17.4654 14.9854 17.2842 15.118 17.207 15.1625C17.1298 15.2071 16.9244 15.2977 16.6854 15.1776L12.0615 12.8542C13.5457 11.2069 15.534 10.0226 17.7809 9.54612ZM9.31365 20.0001C9.31365 18.847 9.49801 17.7364 9.83745 16.6951L14.1661 19.5408C14.3897 19.6877 14.4138 19.9109 14.4138 20C14.4138 20.0891 14.3897 20.3123 14.1661 20.4592L9.83745 23.3049C9.49801 22.2637 9.31365 21.1531 9.31365 20.0001ZM12.0617 27.1462L16.6854 24.8231C16.9246 24.703 17.1298 24.7937 17.207 24.8382C17.2842 24.8828 17.4654 25.0153 17.4809 25.2823L17.781 30.454C15.5341 29.9776 13.546 28.7934 12.0617 27.1462ZM19.3793 30.6679L19.0616 25.1906C19.0198 24.4716 18.6225 23.8273 17.9987 23.4671C17.3749 23.1069 16.6182 23.085 15.9747 23.4083L11.0749 25.87C10.8474 25.5252 10.6392 25.1666 10.4521 24.7956L15.0358 21.7822C15.6377 21.3866 15.9971 20.7203 15.9971 20C15.9971 19.2797 15.6377 18.6134 15.0358 18.2177L10.4521 15.2044C10.6392 14.8334 10.8473 14.475 11.0747 14.1303L15.9745 16.5924C16.2773 16.7445 16.6051 16.8203 16.9324 16.8203C17.3008 16.8203 17.6683 16.7244 17.9986 16.5337C18.6224 16.1735 19.0197 15.5292 19.0614 14.8101L19.3791 9.33229C19.5846 9.32051 19.7914 9.31382 19.9998 9.31382C20.2081 9.31382 20.4149 9.32051 20.6203 9.33229L20.938 14.8094C20.9798 15.5285 21.377 16.1728 22.0008 16.533C22.3311 16.7237 22.6987 16.8197 23.067 16.8197C23.3943 16.8197 23.7221 16.744 24.0248 16.5918L28.925 14.1302C29.1525 14.4749 29.3606 14.8334 29.5477 15.2043L24.9637 18.2178C24.3618 18.6135 24.0025 19.2797 24.0025 20C24.0025 20.7203 24.3618 21.3866 24.9637 21.7822L29.5478 24.7958C29.3607 25.1667 29.1526 25.5252 28.9252 25.8698L24.0251 23.4075C23.3815 23.0841 22.6248 23.1061 22.001 23.4662C21.3772 23.8263 20.9799 24.4707 20.9381 25.1899L20.6204 30.6679C20.415 30.6797 20.2083 30.6863 20 30.6863C19.7915 30.6863 19.5847 30.6797 19.3793 30.6679ZM22.2187 30.454L22.5187 25.2816C22.5342 25.0145 22.7154 24.882 22.7926 24.8374C22.8698 24.7929 23.0751 24.7021 23.3142 24.8223L27.9385 27.1459C26.4541 28.7933 24.4657 29.9777 22.2187 30.454Z" fill="#323941"/>
</g>
<defs>
<clipPath id="clip0_392_18511">
<rect width="40" height="40" fill="white"/>
</clipPath>
</defs>
</svg>
