<svg width="65" height="64" viewBox="0 0 65 64" fill="none" xmlns="http://www.w3.org/2000/svg">
<path d="M44.4672 40.8301C43.5862 41.4895 42.8672 42.3362 42.3635 43.3075C41.8599 44.2787 41.5846 45.3494 41.5581 46.4401" stroke="#009EFF" stroke-width="1.62712" stroke-linecap="round" stroke-linejoin="round"/>
<path d="M35.4762 54.46V57C35.4762 57.5304 35.2626 58.0391 34.8824 58.4142C34.5022 58.7893 33.9866 59 33.449 59H31.4217C30.8841 59 30.3685 58.7893 29.9883 58.4142C29.6081 58.0391 29.3945 57.5304 29.3945 57V54.46C30.0105 54.8125 30.7097 54.9987 31.4217 55H33.449C34.161 54.9987 34.8602 54.8125 35.4762 54.46V54.46Z" stroke="#999999" stroke-width="1.62712" stroke-linecap="round" stroke-linejoin="round"/>
<path d="M37.5032 47V51C37.5032 52.0609 37.0761 53.0783 36.3157 53.8284C35.5554 54.5786 34.5241 55 33.4488 55H31.4216C30.3463 55 29.3151 54.5786 28.5547 53.8284C27.7943 53.0783 27.3672 52.0609 27.3672 51V47H37.5032Z" stroke="#999999" stroke-width="1.62712" stroke-linecap="round" stroke-linejoin="round"/>
<path d="M47.6395 25.82C47.6666 28.0994 47.1667 30.3549 46.1779 32.4151C45.1891 34.4754 43.7373 36.2862 41.9329 37.71C40.5767 38.7429 39.4742 40.0643 38.7073 41.5757C37.9404 43.0872 37.5289 44.7499 37.5034 46.44V47H27.3674V46.44C27.3857 44.805 27.0221 43.1879 26.305 41.7139C25.5878 40.2398 24.5363 38.9485 23.2319 37.94C21.1788 36.3993 19.5568 34.3686 18.5185 32.039C17.4802 29.7094 17.0598 27.1575 17.2967 24.6234C17.5337 22.0892 18.4202 19.6563 19.873 17.5534C21.3257 15.4505 23.2969 13.7468 25.601 12.6027C27.9051 11.4585 30.4663 10.9115 33.0438 11.0132C35.6212 11.1148 38.1301 11.8618 40.3342 13.1837C42.5384 14.5056 44.3655 16.3591 45.6434 18.5697C46.9214 20.7803 47.6083 23.2753 47.6395 25.82V25.82Z" stroke="#999999" stroke-width="1.62712" stroke-linecap="round" stroke-linejoin="round"/>
<path d="M30.4082 47V35" stroke="#999999" stroke-width="1.62712" stroke-linecap="round" stroke-linejoin="round"/>
<path d="M34.4624 47V35" stroke="#999999" stroke-width="1.62712" stroke-linecap="round" stroke-linejoin="round"/>
<path d="M30.4083 35L24.3267 29" stroke="#999999" stroke-width="1.62712" stroke-linecap="round" stroke-linejoin="round"/>
<path d="M34.4624 35L40.544 29" stroke="#999999" stroke-width="1.62712" stroke-linecap="round" stroke-linejoin="round"/>
<path d="M26.3535 15.61C28.2012 14.5533 30.2995 13.9979 32.4351 14" stroke="#009EFF" stroke-width="1.62712" stroke-linecap="round" stroke-linejoin="round"/>
<path d="M20.2715 25.9998C20.2718 23.3083 21.1892 20.695 22.8764 18.5798" stroke="#009EFF" stroke-width="1.62712" stroke-linecap="round" stroke-linejoin="round"/>
<path d="M32.4351 8.00024V4.00024" stroke="#009EFF" stroke-width="1.62712" stroke-linecap="round" stroke-linejoin="round"/>
<path d="M19.5321 13.2702L16.6636 10.4402" stroke="#009EFF" stroke-width="1.62712" stroke-linecap="round" stroke-linejoin="round"/>
<path d="M14.1907 26H10.1362" stroke="#009EFF" stroke-width="1.62712" stroke-linecap="round" stroke-linejoin="round"/>
<path d="M50.6802 26H54.7346" stroke="#009EFF" stroke-width="1.62712" stroke-linecap="round" stroke-linejoin="round"/>
<path d="M45.3379 13.2702L48.2064 10.4402" stroke="#009EFF" stroke-width="1.62712" stroke-linecap="round" stroke-linejoin="round"/>
<path d="M27.3672 50H37.5032" stroke="#999999" stroke-width="1.62712" stroke-linecap="round" stroke-linejoin="round"/>
</svg>
