<svg width="63" height="49" viewBox="0 0 63 49" fill="none" xmlns="http://www.w3.org/2000/svg">
<path d="M31.5 26.2397C28.7141 26.2397 26.46 28.4977 26.46 31.2798C26.46 34.0618 28.7141 36.3198 31.5 36.3198C34.2858 36.3198 36.54 34.0618 36.54 31.2798C36.54 28.4964 34.2858 26.2397 31.5 26.2397Z" stroke="#009EFF" stroke-width="1.52381" stroke-miterlimit="10" stroke-linecap="round" stroke-linejoin="round"/>
<path d="M56.6481 48.0857C58.3574 45.5304 59.6882 42.701 60.56 39.6764C61.3281 37.0111 61.7398 34.1943 61.7398 31.2798C61.7398 30.5739 61.7157 29.8737 61.6682 29.18C61.5196 27.0087 61.1422 24.9008 60.56 22.88C60.25 21.8041 59.8819 20.7529 59.4594 19.73C59.2393 19.1971 59.0044 18.672 58.7552 18.155C58.3389 17.2913 57.8828 16.4505 57.3893 15.635C52.0933 6.88373 42.4846 1.03979 31.4998 1.03979C14.7871 1.03979 1.25977 14.5672 1.25977 31.2798C1.25977 37.4992 3.13465 43.2763 6.34639 48.0781" stroke="#999999" stroke-width="1.52381" stroke-miterlimit="10" stroke-linecap="round" stroke-linejoin="round"/>
<path d="M54.1802 45.542C54.3985 45.2196 54.6096 44.8921 54.8133 44.5596C55.1818 43.9578 55.526 43.3398 55.8443 42.707C56.2548 41.8908 56.6225 41.0499 56.9442 40.187C57.157 39.6165 57.3497 39.0364 57.5215 38.4476C57.6871 37.8803 57.8332 37.3048 57.9592 36.722C58.0715 36.2027 58.1678 35.6775 58.2476 35.147C58.3472 34.4842 58.4211 33.8131 58.4681 33.1346C58.5087 32.5496 58.5293 31.9591 58.5293 31.3638M56.5814 21.6199C56.9424 22.4828 57.2568 23.3697 57.5215 24.2774C57.6871 24.8448 57.8332 25.4205 57.9592 26.0035C58.0942 26.6281 58.2061 27.2613 58.294 27.902" stroke="#009EFF" stroke-width="1.52381" stroke-miterlimit="10" stroke-linecap="round" stroke-linejoin="round"/>
<path d="M50.7915 12.76C51.4234 13.4497 52.0196 14.1776 52.5762 14.9419C52.9242 15.4198 53.2567 15.9119 53.5727 16.4178C53.9113 16.9598 54.2311 17.5176 54.5308 18.0906" stroke="#009EFF" stroke-width="1.52381" stroke-miterlimit="10" stroke-linecap="round" stroke-linejoin="round"/>
<path d="M28.5894 27.1574L49.1328 17.228L35.0948 34.8612" stroke="#009EFF" stroke-width="1.52381"/>
</svg>
