<svg width="50" height="54" viewBox="0 0 50 54" fill="none" xmlns="http://www.w3.org/2000/svg">
<path d="M22.6462 7.62769H14.4772C9.12763 7.62769 4.79095 11.9644 4.79095 17.3139V17.3139C4.79095 22.6635 9.12763 27.0002 14.4772 27.0002H35.3128C40.6624 27.0002 44.999 31.3369 44.999 36.6864V36.6864C44.999 42.036 40.6623 46.3727 35.3128 46.3727H25.3285M22.0501 46.3727H15.7913M26.5206 7.62769H33.3755" stroke="#999999" stroke-width="0.941176" stroke-linecap="round"/>
<path d="M22.051 46.3727H15.7922M26.5216 7.62769H33.3765" stroke="#009EFF" stroke-width="0.941176" stroke-linecap="round"/>
<circle cx="6.70586" cy="6.70586" r="6.23527" transform="matrix(-1 0 0 1 49.4707 0.176514)" fill="#F5F5F5" stroke="#009EFF" stroke-width="0.941176"/>
<circle cx="6.70586" cy="6.70586" r="6.23527" transform="matrix(-1 0 0 1 13.7063 40.4114)" fill="#F5F5F5" stroke="#009EFF" stroke-width="0.941176"/>
</svg>
