<svg width="58" height="58" viewBox="0 0 58 58" fill="none" xmlns="http://www.w3.org/2000/svg">
<path d="M24.5275 3.46264L24.5275 6.9354L19.8385 6.9354C17.2489 6.9354 15.1494 9.00863 15.1494 11.5657L15.1494 48.6084C15.1494 51.1655 17.2489 53.2388 19.8385 53.2388L38.5947 53.2388C41.1842 53.2388 43.2837 51.1655 43.2837 48.6084L43.2837 11.5657C43.2837 9.00863 41.1842 6.9354 38.5947 6.9354L33.9056 6.9354L33.9056 3.46264L24.5275 3.46264Z" stroke="#999999" stroke-width="1.43284" stroke-miterlimit="10" stroke-linecap="round" stroke-linejoin="round"/>
<path d="M29.6991 41.8464C29.8438 42.1678 30.2009 42.3362 30.5409 42.2434C30.881 42.1506 31.103 41.8242 31.0645 41.4739L30.0158 31.9455L33.7609 31.9455C34.0041 31.9455 34.2306 31.8222 34.3626 31.618C34.4946 31.4139 34.514 31.1567 34.4142 30.935L28.7332 18.3178C28.5885 17.9964 28.2315 17.828 27.8914 17.9208C27.5513 18.0136 27.3293 18.3399 27.3678 18.6903L28.4166 28.2187L24.6714 28.2187C24.4283 28.2187 24.2017 28.342 24.0697 28.5462C23.9377 28.7503 23.9183 29.0075 24.0181 29.2292L29.6991 41.8464Z" stroke="#009EFF" stroke-width="1.43284" stroke-linejoin="round"/>
<path d="M18.1792 12.1194L18.1792 29" stroke="#009EFF" stroke-width="1.43284" stroke-linecap="round"/>
<path d="M18.1792 32.4626L18.1792 38.5223" stroke="#009EFF" stroke-width="1.43284" stroke-linecap="round"/>
</svg>
